<svg width="63" height="56" viewBox="0 0 63 56" fill="none" xmlns="http://www.w3.org/2000/svg">
<path d="M29.375 6.6875C29.375 6.17364 29.5923 5.68083 29.9791 5.31748C30.3659 4.95413 30.8905 4.75 31.4375 4.75H60.3125C60.8595 4.75 61.3841 4.95413 61.7709 5.31748C62.1577 5.68083 62.375 6.17364 62.375 6.6875V10.5625C62.375 11.0764 62.1577 11.5692 61.7709 11.9325C61.3841 12.2959 60.8595 12.5 60.3125 12.5H31.4375C30.8905 12.5 30.3659 12.2959 29.9791 11.9325C29.5923 11.5692 29.375 11.0764 29.375 10.5625V6.6875ZM8.75 0.875C6.56196 0.875 4.46354 1.69152 2.91637 3.14492C1.36919 4.59833 0.5 6.56957 0.5 8.625L0.5 16.375C0.5 18.4304 1.36919 20.4017 2.91637 21.8551C4.46354 23.3085 6.56196 24.125 8.75 24.125H17C19.188 24.125 21.2865 23.3085 22.8336 21.8551C24.3808 20.4017 25.25 18.4304 25.25 16.375V8.625C25.25 6.56957 24.3808 4.59833 22.8336 3.14492C21.2865 1.69152 19.188 0.875 17 0.875H8.75ZM8.75 31.875C6.56196 31.875 4.46354 32.6915 2.91637 34.1449C1.36919 35.5983 0.5 37.5696 0.5 39.625L0.5 47.375C0.5 49.4304 1.36919 51.4017 2.91637 52.8551C4.46354 54.3085 6.56196 55.125 8.75 55.125H17C19.188 55.125 21.2865 54.3085 22.8336 52.8551C24.3808 51.4017 25.25 49.4304 25.25 47.375V39.625C25.25 37.5696 24.3808 35.5983 22.8336 34.1449C21.2865 32.6915 19.188 31.875 17 31.875H8.75ZM12.2728 17.7467C12.0812 17.9272 11.8536 18.0703 11.603 18.168C11.3524 18.2657 11.0838 18.316 10.8125 18.316C10.5412 18.316 10.2726 18.2657 10.022 18.168C9.77144 18.0703 9.54384 17.9272 9.35225 17.7467L5.22725 13.8717C5.03549 13.6916 4.88337 13.4778 4.77959 13.2424C4.67581 13.007 4.62239 12.7548 4.62239 12.5C4.62239 12.2452 4.67581 11.993 4.77959 11.7576C4.88337 11.5222 5.03549 11.3084 5.22725 11.1283C5.41901 10.9481 5.64667 10.8052 5.89722 10.7077C6.14777 10.6102 6.41631 10.5601 6.6875 10.5601C6.95869 10.5601 7.22723 10.6102 7.47778 10.7077C7.72833 10.8052 7.95599 10.9481 8.14775 11.1283L10.8125 13.6354L17.6022 7.25325C17.794 7.07311 18.0217 6.93021 18.2722 6.83272C18.5228 6.73523 18.7913 6.68505 19.0625 6.68505C19.3337 6.68505 19.6022 6.73523 19.8528 6.83272C20.1033 6.93021 20.331 7.07311 20.5228 7.25325C20.7145 7.43339 20.8666 7.64725 20.9704 7.88261C21.0742 8.11798 21.1276 8.37024 21.1276 8.625C21.1276 8.87976 21.0742 9.13202 20.9704 9.36739C20.8666 9.60275 20.7145 9.81661 20.5228 9.99675L12.2728 17.7467ZM12.2728 48.7467C12.0812 48.9272 11.8536 49.0703 11.603 49.168C11.3524 49.2657 11.0838 49.316 10.8125 49.316C10.5412 49.316 10.2726 49.2657 10.022 49.168C9.77144 49.0703 9.54384 48.9272 9.35225 48.7467L5.22725 44.8717C4.83997 44.5079 4.62239 44.0145 4.62239 43.5C4.62239 42.9855 4.83997 42.4921 5.22725 42.1283C5.61453 41.7644 6.1398 41.5601 6.6875 41.5601C7.2352 41.5601 7.76047 41.7644 8.14775 42.1283L10.8125 44.6354L17.6022 38.2533C17.9895 37.8894 18.5148 37.6851 19.0625 37.6851C19.6102 37.6851 20.1355 37.8894 20.5228 38.2533C20.91 38.6171 21.1276 39.1105 21.1276 39.625C21.1276 40.1395 20.91 40.6329 20.5228 40.9967L12.2728 48.7467ZM29.375 37.6875C29.375 37.1736 29.5923 36.6808 29.9791 36.3175C30.3659 35.9541 30.8905 35.75 31.4375 35.75H60.3125C60.8595 35.75 61.3841 35.9541 61.7709 36.3175C62.1577 36.6808 62.375 37.1736 62.375 37.6875V41.5625C62.375 42.0764 62.1577 42.5692 61.7709 42.9325C61.3841 43.2959 60.8595 43.5 60.3125 43.5H31.4375C30.8905 43.5 30.3659 43.2959 29.9791 42.9325C29.5923 42.5692 29.375 42.0764 29.375 41.5625V37.6875ZM29.375 18.3125C29.375 17.7986 29.5923 17.3058 29.9791 16.9425C30.3659 16.5791 30.8905 16.375 31.4375 16.375H52.0625C52.6095 16.375 53.1341 16.5791 53.5209 16.9425C53.9077 17.3058 54.125 17.7986 54.125 18.3125C54.125 18.8264 53.9077 19.3192 53.5209 19.6825C53.1341 20.0459 52.6095 20.25 52.0625 20.25H31.4375C30.8905 20.25 30.3659 20.0459 29.9791 19.6825C29.5923 19.3192 29.375 18.8264 29.375 18.3125ZM29.375 49.3125C29.375 48.7986 29.5923 48.3058 29.9791 47.9425C30.3659 47.5791 30.8905 47.375 31.4375 47.375H52.0625C52.6095 47.375 53.1341 47.5791 53.5209 47.9425C53.9077 48.3058 54.125 48.7986 54.125 49.3125C54.125 49.8264 53.9077 50.3192 53.5209 50.6825C53.1341 51.0459 52.6095 51.25 52.0625 51.25H31.4375C30.8905 51.25 30.3659 51.0459 29.9791 50.6825C29.5923 50.3192 29.375 49.8264 29.375 49.3125Z" fill="#F5F5F5" fill-opacity="0.6"/>
</svg>
