<?xml version="1.0" standalone="no"?>
<!DOCTYPE svg PUBLIC "-//W3C//DTD SVG 20010904//EN"
 "http://www.w3.org/TR/2001/REC-SVG-20010904/DTD/svg10.dtd">
<svg version="1.0" xmlns="http://www.w3.org/2000/svg"
 width="498.000000pt" height="501.000000pt" viewBox="0 0 498.000000 501.000000"
 preserveAspectRatio="xMidYMid meet">

<g transform="translate(0.000000,501.000000) scale(0.100000,-0.100000)"
fill="#ffffff" stroke="none">
<path d="M2802 4190 c-104 -27 -187 -75 -262 -150 -176 -175 -218 -461 -105
-706 72 -157 165 -264 410 -474 352 -302 500 -506 542 -750 21 -116 6 -215
-47 -325 -35 -71 -142 -210 -124 -160 39 110 46 156 47 280 1 106 -3 145 -21
208 -83 293 -338 564 -701 746 -118 60 -268 120 -476 190 -438 150 -674 283
-865 489 l-75 80 7 -127 c8 -158 29 -276 74 -411 72 -216 197 -426 353 -591
l76 -80 83 37 c46 20 138 50 205 67 117 30 131 31 327 32 183 0 213 -2 285
-23 258 -72 426 -195 515 -374 97 -198 68 -370 -89 -521 -101 -97 -205 -149
-364 -183 -91 -19 -357 -19 -457 0 -223 43 -442 149 -642 311 -32 26 -58 43
-58 38 0 -4 18 -44 39 -88 22 -44 38 -81 37 -82 -1 -1 -63 18 -137 43 -172 57
-350 144 -490 240 l-111 75 36 -68 c154 -292 503 -574 883 -712 644 -235 1407
-117 1804 278 321 320 358 760 94 1121 -62 84 -184 210 -310 318 -356 308
-438 395 -495 528 -72 170 -9 338 142 374 129 31 252 -48 290 -185 27 -102 27
-102 91 -143 130 -83 339 -192 369 -192 5 0 -10 28 -35 63 -24 34 -68 98 -98
142 l-54 80 -5 135 c-5 127 -7 140 -37 200 -41 83 -90 141 -162 189 -143 96
-320 125 -489 81z m232 -162 c8 -14 7 -22 -6 -35 -14 -14 -22 -15 -42 -5 -20
9 -49 8 -130 -4 -94 -14 -108 -19 -139 -47 -28 -28 -37 -48 -61 -141 -19 -76
-24 -112 -16 -120 20 -20 12 -66 -15 -78 -52 -23 -90 53 -42 85 31 20 87 229
68 258 -18 30 -13 57 15 75 24 16 26 16 53 -4 28 -20 30 -20 132 -5 57 9 111
22 119 30 19 17 50 13 64 -9z m301 -143 c21 -32 2 -65 -35 -65 -42 0 -62 40
-35 70 23 25 53 23 70 -5z m-690 -470 c0 -30 -39 -27 -43 3 -3 20 0 23 20 20
15 -2 23 -10 23 -23z m-1073 -310 c10 -22 9 -29 -9 -46 -26 -26 -60 -18 -69
17 -13 52 56 77 78 29z m1360 8 c10 -9 18 -28 18 -42 1 -37 152 -201 179 -194
26 7 61 -30 61 -63 0 -19 28 -57 107 -142 59 -65 114 -119 123 -121 39 -9 53
-48 26 -70 -20 -17 -46 -2 -53 30 -8 40 -219 273 -240 264 -27 -10 -63 22 -63
56 0 25 -16 48 -76 112 -62 68 -82 83 -112 87 -29 4 -39 11 -46 32 -8 22 -6
32 9 48 22 24 42 25 67 3z m-1174 -195 c18 -18 14 -46 -7 -58 -25 -13 -48 -4
-56 21 -12 38 35 65 63 37z m472 -53 c26 -32 -13 -81 -47 -59 -35 22 -23 74
17 74 10 0 23 -7 30 -15z"/>
<path d="M1745 2103 c-57 -15 -92 -69 -81 -125 14 -71 84 -104 151 -73 l36 18
82 -38 c45 -20 156 -74 247 -118 160 -80 165 -83 171 -117 8 -50 25 -78 61
-96 26 -13 38 -14 69 -5 55 17 82 55 75 108 -5 41 -5 42 73 112 l78 70 49 -5
c41 -5 54 -2 77 16 44 35 60 75 47 115 -39 118 -202 90 -204 -34 -1 -34 -9
-44 -79 -107 -74 -65 -82 -69 -140 -76 -34 -4 -66 -8 -72 -9 -18 -3 -505 240
-509 253 -14 55 -24 73 -46 89 -30 21 -58 28 -85 22z"/>
</g>
</svg>
