<svg width="53" height="70" viewBox="0 0 53 70" fill="none" xmlns="http://www.w3.org/2000/svg">
<path fill-rule="evenodd" clip-rule="evenodd" d="M21.6122 0.625635C22.788 0.172149 24.03 0.0783383 25.2389 0.351691C26.4479 0.625043 27.5905 1.25799 28.5754 2.2C29.5603 3.14202 30.3602 4.36702 30.9114 5.77721C31.4626 7.18741 31.7498 8.74375 31.75 10.322V59.678C31.7498 61.2563 31.4626 62.8126 30.9114 64.2228C30.3602 65.633 29.5603 66.858 28.5754 67.8C27.5905 68.742 26.4479 69.375 25.2389 69.6483C24.03 69.9217 22.788 69.8279 21.6122 69.3744L5.86225 63.2994C4.24026 62.6738 2.81833 61.3926 1.80736 59.646C0.796404 57.8993 0.250278 55.7802 0.25 53.603V16.397C0.250278 14.2198 0.796404 12.1007 1.80736 10.354C2.81833 8.60737 4.24026 7.32622 5.86225 6.70063L21.6122 0.625635ZM34.375 8.00001C34.375 7.1049 34.6516 6.24646 35.1438 5.61352C35.6361 4.98059 36.3038 4.62501 37 4.62501H44.875C46.9636 4.62501 48.9666 5.69175 50.4435 7.59055C51.9203 9.48936 52.75 12.0647 52.75 14.75V18.125C52.75 19.0201 52.4734 19.8786 51.9812 20.5115C51.4889 21.1444 50.8212 21.5 50.125 21.5C49.4288 21.5 48.7611 21.1444 48.2688 20.5115C47.7766 19.8786 47.5 19.0201 47.5 18.125V14.75C47.5 13.8549 47.2234 12.9965 46.7312 12.3635C46.2389 11.7306 45.5712 11.375 44.875 11.375H37C36.3038 11.375 35.6361 11.0194 35.1438 10.3865C34.6516 9.75356 34.375 8.89511 34.375 8.00001ZM50.125 48.5C50.8212 48.5 51.4889 48.8556 51.9812 49.4885C52.4734 50.1215 52.75 50.9799 52.75 51.875V55.25C52.75 57.9353 51.9203 60.5107 50.4435 62.4095C48.9666 64.3083 46.9636 65.375 44.875 65.375H37C36.3038 65.375 35.6361 65.0194 35.1438 64.3865C34.6516 63.7536 34.375 62.8951 34.375 62C34.375 61.1049 34.6516 60.2465 35.1438 59.6135C35.6361 58.9806 36.3038 58.625 37 58.625H44.875C45.5712 58.625 46.2389 58.2694 46.7312 57.6365C47.2234 57.0036 47.5 56.1451 47.5 55.25V51.875C47.5 50.9799 47.7766 50.1215 48.2688 49.4885C48.7611 48.8556 49.4288 48.5 50.125 48.5ZM18.625 31.625C17.9288 31.625 17.2611 31.9806 16.7688 32.6135C16.2766 33.2465 16 34.1049 16 35C16 35.8951 16.2766 36.7536 16.7688 37.3865C17.2611 38.0194 17.9288 38.375 18.625 38.375H18.6276C19.3238 38.375 19.9915 38.0194 20.4838 37.3865C20.9761 36.7536 21.2526 35.8951 21.2526 35C21.2526 34.1049 20.9761 33.2465 20.4838 32.6135C19.9915 31.9806 19.3238 31.625 18.6276 31.625H18.625Z" fill="#F5F5F5" fill-opacity="0.6"/>
</svg>
