<svg width="61" height="64" viewBox="0 0 61 64" fill="none" xmlns="http://www.w3.org/2000/svg">
<path d="M44.3333 7C43.4935 7 42.688 6.67076 42.0942 6.08471C41.5003 5.49866 41.1667 4.7038 41.1667 3.875C41.1667 3.0462 41.5003 2.25134 42.0942 1.66529C42.688 1.07924 43.4935 0.75 44.3333 0.75H57C57.8399 0.75 58.6453 1.07924 59.2392 1.66529C59.833 2.25134 60.1667 3.0462 60.1667 3.875V16.375C60.1667 17.2038 59.833 17.9987 59.2392 18.5847C58.6453 19.1708 57.8399 19.5 57 19.5C56.1601 19.5 55.3547 19.1708 54.7608 18.5847C54.167 17.9987 53.8333 17.2038 53.8333 16.375V11.4188L35.4888 29.5219C34.895 30.1077 34.0897 30.4368 33.25 30.4368C32.4103 30.4368 31.605 30.1077 31.0112 29.5219L22.1667 20.7938L5.4055 37.3344C4.80826 37.9036 4.00835 38.2186 3.17806 38.2115C2.34777 38.2044 1.55353 37.8757 0.966408 37.2963C0.379282 36.7169 0.0462473 35.9331 0.0390323 35.1138C0.0318173 34.2944 0.350999 33.505 0.927833 32.9156L19.9278 14.1656C20.5217 13.5798 21.327 13.2507 22.1667 13.2507C23.0064 13.2507 23.8117 13.5798 24.4055 14.1656L33.25 22.8938L49.3557 7H44.3333ZM6.33333 50.75V60.125C6.33333 60.9538 5.9997 61.7487 5.40584 62.3347C4.81197 62.9208 4.00652 63.25 3.16667 63.25C2.32681 63.25 1.52136 62.9208 0.927495 62.3347C0.33363 61.7487 0 60.9538 0 60.125V50.75C0 49.9212 0.33363 49.1263 0.927495 48.5403C1.52136 47.9542 2.32681 47.625 3.16667 47.625C4.00652 47.625 4.81197 47.9542 5.40584 48.5403C5.9997 49.1263 6.33333 49.9212 6.33333 50.75ZM22.1667 38.25C22.1667 37.4212 21.833 36.6263 21.2392 36.0403C20.6453 35.4542 19.8399 35.125 19 35.125C18.1601 35.125 17.3547 35.4542 16.7608 36.0403C16.167 36.6263 15.8333 37.4212 15.8333 38.25V60.125C15.8333 60.9538 16.167 61.7487 16.7608 62.3347C17.3547 62.9208 18.1601 63.25 19 63.25C19.8399 63.25 20.6453 62.9208 21.2392 62.3347C21.833 61.7487 22.1667 60.9538 22.1667 60.125V38.25ZM34.8333 41.375C35.6732 41.375 36.4786 41.7042 37.0725 42.2903C37.6664 42.8763 38 43.6712 38 44.5V60.125C38 60.9538 37.6664 61.7487 37.0725 62.3347C36.4786 62.9208 35.6732 63.25 34.8333 63.25C33.9935 63.25 33.188 62.9208 32.5942 62.3347C32.0003 61.7487 31.6667 60.9538 31.6667 60.125V44.5C31.6667 43.6712 32.0003 42.8763 32.5942 42.2903C33.188 41.7042 33.9935 41.375 34.8333 41.375ZM53.8333 28.875C53.8333 28.0462 53.4997 27.2513 52.9058 26.6653C52.312 26.0792 51.5065 25.75 50.6667 25.75C49.8268 25.75 49.0214 26.0792 48.4275 26.6653C47.8336 27.2513 47.5 28.0462 47.5 28.875V60.125C47.5 60.9538 47.8336 61.7487 48.4275 62.3347C49.0214 62.9208 49.8268 63.25 50.6667 63.25C51.5065 63.25 52.312 62.9208 52.9058 62.3347C53.4997 61.7487 53.8333 60.9538 53.8333 60.125V28.875Z" fill="#F5F5F5" fill-opacity="0.6"/>
</svg>
