<?xml version="1.0" standalone="no"?>
<!DOCTYPE svg PUBLIC "-//W3C//DTD SVG 20010904//EN"
 "http://www.w3.org/TR/2001/REC-SVG-20010904/DTD/svg10.dtd">
<svg version="1.0" xmlns="http://www.w3.org/2000/svg"
 width="1000.000000pt" height="1000.000000pt" viewBox="0 0 1000.000000 1000.000000"
 preserveAspectRatio="xMidYMid meet">

<g transform="translate(0.000000,1000.000000) scale(0.100000,-0.100000)"
fill="#000000" stroke="none">
<path d="M0 9915 l0 -85 28 6 c75 18 118 61 136 137 l6 27 -85 0 -85 0 0 -85z"/>
<path d="M727 9989 c-51 -30 -62 -122 -19 -169 39 -45 93 -50 165 -16 40 18
72 26 112 26 62 0 97 15 136 57 23 25 49 80 49 104 0 13 -421 11 -443 -2z"/>
<path d="M1717 9974 c-56 -56 -41 -151 28 -180 47 -19 65 -18 119 11 32 17 63
25 99 25 112 1 178 48 201 143 l6 27 -213 0 -214 0 -26 -26z"/>
<path d="M2717 9974 c-50 -50 -44 -134 11 -170 36 -24 90 -22 140 4 28 14 61
22 95 22 112 1 178 48 201 143 l6 27 -213 0 -214 0 -26 -26z"/>
<path d="M3717 9974 c-50 -50 -44 -134 11 -170 36 -24 90 -22 140 4 28 14 61
22 95 22 112 1 178 48 201 143 l6 27 -213 0 -214 0 -26 -26z"/>
<path d="M4717 9974 c-50 -50 -44 -134 11 -170 36 -24 90 -22 140 4 28 14 61
22 95 22 112 1 178 48 201 143 l6 27 -213 0 -214 0 -26 -26z"/>
<path d="M5717 9974 c-50 -50 -44 -134 11 -170 36 -24 90 -22 140 4 28 14 61
22 95 22 112 1 178 48 201 143 l6 27 -213 0 -214 0 -26 -26z"/>
<path d="M6717 9974 c-50 -50 -44 -134 11 -170 36 -24 90 -22 140 4 28 14 61
22 95 22 112 1 178 48 201 143 l6 27 -213 0 -214 0 -26 -26z"/>
<path d="M7717 9974 c-50 -50 -44 -134 11 -170 36 -24 90 -22 140 4 28 14 61
22 95 22 112 1 178 48 201 143 l6 27 -213 0 -214 0 -26 -26z"/>
<path d="M8717 9974 c-50 -50 -44 -134 11 -170 36 -24 90 -22 140 4 28 14 61
22 95 22 112 1 178 48 201 143 l6 27 -213 0 -214 0 -26 -26z"/>
<path d="M9717 9974 c-50 -50 -44 -134 11 -170 36 -24 90 -22 140 4 25 13 61
22 87 22 l45 0 0 85 0 85 -129 0 c-125 0 -129 -1 -154 -26z"/>
<path d="M582 9728 c-6 -6 -12 -24 -12 -38 0 -24 -2 -25 -46 -22 -71 6 -129
-21 -171 -80 -23 -31 -53 -58 -83 -73 -63 -32 -90 -67 -90 -117 0 -53 22 -92
64 -112 43 -20 70 -20 131 1 41 14 56 14 94 4 85 -23 85 -29 1 -143 -93 -123
-131 -220 -161 -408 -18 -118 -27 -144 -61 -189 -75 -97 -78 -103 -78 -149 0
-92 63 -142 181 -142 77 0 106 -14 203 -100 43 -39 82 -70 86 -70 16 0 49 -41
45 -57 -24 -108 -27 -133 -21 -157 10 -42 66 -93 110 -101 27 -6 52 -2 92 14
35 13 79 21 117 21 91 1 138 26 233 125 68 71 113 105 145 109 3 1 28 15 55
32 27 16 54 32 59 34 6 3 53 48 105 100 135 135 179 224 181 366 2 116 10 133
81 180 73 47 107 61 166 67 117 14 192 136 148 240 -7 18 -24 44 -38 58 l-24
26 29 16 c32 19 34 52 5 71 -26 16 -52 -4 -56 -42 -3 -31 -4 -31 -47 -25 -68
9 -111 -4 -169 -51 -70 -58 -87 -66 -135 -66 -35 0 -44 5 -68 38 -15 20 -34
43 -41 50 -27 30 -60 78 -67 100 -5 18 3 33 45 78 66 73 82 106 83 168 1 52
-19 103 -55 142 -19 21 -19 21 7 38 30 19 31 52 3 70 -25 16 -52 -4 -56 -40
-3 -28 -4 -29 -53 -25 -68 4 -129 -20 -174 -70 -20 -22 -60 -52 -88 -66 -29
-14 -77 -45 -109 -68 -52 -39 -61 -42 -123 -44 -72 -2 -141 -13 -216 -35 -27
-8 -49 -13 -49 -10 0 3 -8 0 -18 -5 -28 -15 -42 6 -42 62 0 70 -18 121 -58
168 l-34 40 22 24 c29 31 24 69 -10 73 -14 2 -31 -3 -38 -10z"/>
<path d="M2581 9726 c-7 -8 -11 -25 -9 -38 2 -18 9 -23 32 -23 36 0 56 27 40
53 -14 22 -48 27 -63 8z"/>
<path d="M3581 9726 c-7 -8 -11 -25 -9 -38 2 -18 9 -23 32 -23 36 0 56 27 40
53 -14 22 -48 27 -63 8z"/>
<path d="M4581 9726 c-7 -8 -11 -25 -9 -38 2 -18 9 -23 32 -23 36 0 56 27 40
53 -14 22 -48 27 -63 8z"/>
<path d="M5581 9726 c-7 -8 -11 -25 -9 -38 2 -18 9 -23 32 -23 36 0 56 27 40
53 -14 22 -48 27 -63 8z"/>
<path d="M6582 9728 c-16 -16 -15 -53 1 -66 17 -14 61 7 65 31 7 37 -39 62
-66 35z"/>
<path d="M7581 9726 c-7 -8 -11 -25 -9 -38 2 -18 9 -23 32 -23 36 0 56 27 40
53 -14 22 -48 27 -63 8z"/>
<path d="M8581 9726 c-7 -8 -11 -25 -9 -38 2 -18 9 -23 32 -23 36 0 56 27 40
53 -14 22 -48 27 -63 8z"/>
<path d="M9581 9726 c-7 -8 -11 -25 -9 -38 2 -18 9 -23 32 -23 36 0 56 27 40
53 -14 22 -48 27 -63 8z"/>
<path d="M2463 9660 c-46 -10 -80 -35 -114 -83 -18 -26 -50 -53 -82 -70 -83
-43 -108 -107 -68 -173 35 -58 117 -65 186 -18 11 8 42 14 70 14 73 0 125 18
161 54 117 117 8 312 -153 276z"/>
<path d="M3463 9660 c-46 -10 -80 -35 -114 -83 -18 -26 -50 -53 -83 -70 -77
-41 -104 -103 -72 -165 30 -57 102 -72 174 -34 26 14 61 22 90 22 106 0 180
47 201 128 33 120 -74 229 -196 202z"/>
<path d="M4463 9660 c-46 -10 -80 -35 -114 -83 -18 -26 -50 -53 -83 -70 -77
-41 -104 -103 -72 -165 30 -57 102 -72 174 -34 26 14 61 22 90 22 106 0 180
47 201 128 33 120 -74 229 -196 202z"/>
<path d="M5463 9660 c-46 -10 -80 -35 -114 -83 -18 -26 -50 -53 -83 -70 -77
-41 -104 -103 -72 -165 30 -57 102 -72 174 -34 26 14 61 22 90 22 106 0 180
47 201 128 33 120 -74 229 -196 202z"/>
<path d="M6434 9651 c-23 -10 -59 -40 -80 -66 -21 -26 -59 -57 -84 -70 -56
-29 -80 -54 -89 -97 -25 -111 88 -185 197 -129 24 12 61 21 89 21 123 2 203
75 203 185 0 75 -51 145 -121 165 -48 14 -68 12 -115 -9z"/>
<path d="M7463 9660 c-46 -10 -80 -35 -111 -80 -16 -23 -50 -52 -85 -70 -90
-49 -115 -128 -59 -190 39 -45 93 -50 160 -16 36 18 67 26 104 26 63 0 126 27
156 65 98 124 -12 299 -165 265z"/>
<path d="M8463 9660 c-46 -10 -80 -35 -114 -83 -18 -26 -50 -53 -83 -70 -77
-41 -104 -103 -72 -165 30 -57 102 -72 174 -34 26 14 61 22 90 22 106 0 180
47 201 128 33 120 -74 229 -196 202z"/>
<path d="M9463 9660 c-46 -10 -80 -35 -114 -83 -18 -26 -50 -53 -83 -70 -77
-41 -104 -103 -72 -165 30 -57 102 -72 174 -34 26 14 61 22 90 22 106 0 180
47 201 128 33 120 -74 229 -196 202z"/>
<path d="M6080 9230 c-11 -11 -20 -26 -20 -34 0 -9 -19 -15 -61 -19 -70 -6
-108 -29 -158 -94 -19 -24 -51 -53 -71 -63 -81 -41 -115 -113 -83 -177 26 -55
74 -83 139 -83 74 0 84 -6 84 -49 0 -20 -4 -41 -8 -46 -5 -6 -17 -41 -27 -78
-18 -69 -23 -169 -16 -307 4 -69 2 -81 -31 -150 -26 -56 -48 -86 -86 -118 -83
-69 -90 -153 -17 -210 31 -25 95 -29 142 -11 30 13 314 13 323 1 3 -4 23 -13
45 -21 22 -8 59 -27 81 -42 39 -27 41 -31 35 -61 -14 -62 -51 -118 -100 -153
-54 -39 -71 -69 -71 -124 0 -98 103 -137 210 -80 22 12 55 19 93 19 72 0 113
17 154 63 41 47 57 106 48 177 -4 30 -7 64 -7 75 1 28 38 55 77 55 51 0 311
89 362 124 64 43 97 107 127 246 23 107 27 117 62 148 58 50 124 85 177 93
109 18 177 81 185 172 4 56 -11 101 -50 143 -19 21 -19 21 7 38 19 13 25 24
23 44 -2 22 -9 28 -36 30 -26 3 -34 -1 -41 -20 -5 -13 -6 -28 -4 -35 4 -9 -13
-11 -64 -7 -56 5 -80 1 -138 -19 -38 -14 -73 -23 -77 -21 -15 9 -74 120 -86
159 -7 24 -9 70 -6 115 7 87 -5 141 -42 195 -22 32 -24 42 -14 60 7 12 10 33
8 46 -2 19 -10 25 -36 27 -29 3 -35 -1 -44 -26 -11 -29 -12 -29 -72 -25 -53 5
-72 1 -133 -25 -84 -36 -100 -38 -215 -27 -100 8 -215 -5 -302 -35 -75 -27
-113 -25 -161 9 -39 27 -46 46 -31 83 5 11 0 24 -13 37 -26 26 -36 26 -61 1z"/>
<path d="M77 9234 c-4 -4 -7 -21 -7 -39 0 -30 -2 -31 -35 -27 l-35 4 0 -171 0
-171 31 0 c68 0 137 59 155 133 9 41 -14 111 -49 147 l-30 31 22 20 c15 14 21
30 19 47 -2 22 -9 28 -33 30 -17 2 -34 0 -38 -4z"/>
<path d="M3081 9226 c-7 -8 -11 -25 -9 -38 2 -18 9 -23 32 -23 36 0 56 27 40
53 -14 22 -48 27 -63 8z"/>
<path d="M4081 9226 c-7 -8 -11 -25 -9 -38 2 -18 9 -23 32 -23 36 0 56 27 40
53 -14 22 -48 27 -63 8z"/>
<path d="M5081 9226 c-7 -8 -11 -25 -9 -38 2 -18 9 -23 32 -23 36 0 56 27 40
53 -14 22 -48 27 -63 8z"/>
<path d="M8081 9226 c-7 -8 -11 -25 -9 -38 2 -18 9 -23 32 -23 36 0 56 27 40
53 -14 22 -48 27 -63 8z"/>
<path d="M9081 9226 c-7 -8 -11 -25 -9 -38 2 -18 9 -23 32 -23 36 0 56 27 40
53 -14 22 -48 27 -63 8z"/>
<path d="M2963 9160 c-46 -10 -80 -35 -114 -83 -18 -26 -50 -53 -83 -70 -77
-41 -104 -103 -72 -165 30 -57 102 -72 174 -34 26 14 61 22 90 22 106 0 180
47 201 128 33 120 -74 229 -196 202z"/>
<path d="M3963 9160 c-46 -10 -80 -35 -114 -83 -18 -26 -50 -53 -83 -70 -77
-41 -104 -103 -72 -165 30 -57 102 -72 174 -34 26 14 61 22 90 22 106 0 180
47 201 128 33 120 -74 229 -196 202z"/>
<path d="M4963 9160 c-46 -10 -80 -35 -114 -83 -18 -26 -50 -53 -83 -70 -77
-41 -104 -103 -72 -165 30 -57 102 -72 174 -34 26 14 61 22 90 22 106 0 180
47 201 128 33 120 -74 229 -196 202z"/>
<path d="M7963 9160 c-46 -10 -79 -34 -114 -83 -19 -26 -51 -52 -84 -70 -61
-30 -85 -65 -85 -122 0 -46 42 -91 94 -100 29 -6 47 -2 87 19 34 17 67 26 97
26 106 0 180 47 201 128 33 120 -74 229 -196 202z"/>
<path d="M8963 9160 c-46 -10 -80 -35 -114 -83 -18 -26 -50 -53 -83 -70 -77
-41 -104 -103 -72 -165 30 -57 102 -72 174 -34 26 14 61 22 90 22 106 0 180
47 201 128 33 120 -74 229 -196 202z"/>
<path d="M9963 9160 c-47 -11 -80 -35 -114 -83 -18 -26 -50 -53 -83 -70 -77
-41 -104 -103 -72 -165 30 -57 102 -72 174 -34 26 13 61 22 87 22 l45 0 0 170
c0 94 -1 170 -2 169 -2 -1 -18 -4 -35 -9z"/>
<path d="M2581 8726 c-7 -8 -11 -25 -9 -38 2 -18 9 -23 32 -23 36 0 56 27 40
53 -14 22 -48 27 -63 8z"/>
<path d="M3581 8726 c-7 -8 -11 -25 -9 -38 2 -18 9 -23 32 -23 36 0 56 27 40
53 -14 22 -48 27 -63 8z"/>
<path d="M4581 8726 c-7 -8 -11 -25 -9 -38 2 -18 9 -23 32 -23 36 0 56 27 40
53 -14 22 -48 27 -63 8z"/>
<path d="M5577 8734 c-4 -4 -7 -21 -7 -38 0 -31 -1 -31 -44 -28 -71 6 -110
-13 -168 -80 -29 -33 -73 -71 -99 -84 -96 -48 -105 -165 -15 -208 45 -21 61
-20 124 9 40 19 71 25 119 25 76 0 120 18 162 66 55 62 51 150 -10 219 -30 33
-30 34 -9 45 16 9 20 19 18 43 -3 27 -7 32 -33 35 -17 2 -34 0 -38 -4z"/>
<path d="M8581 8726 c-7 -8 -11 -25 -9 -38 2 -18 9 -23 32 -23 36 0 56 27 40
53 -14 22 -48 27 -63 8z"/>
<path d="M9581 8726 c-7 -8 -11 -25 -9 -38 2 -18 9 -23 32 -23 36 0 56 27 40
53 -14 22 -48 27 -63 8z"/>
<path d="M2465 8660 c-48 -11 -70 -26 -116 -81 -25 -30 -60 -59 -84 -69 -58
-25 -85 -62 -85 -116 0 -59 38 -103 97 -111 33 -4 53 0 92 21 37 19 66 26 106
26 69 0 113 18 148 59 54 65 57 150 6 215 -36 46 -105 70 -164 56z"/>
<path d="M3463 8660 c-46 -10 -80 -35 -114 -83 -18 -26 -50 -53 -83 -70 -77
-41 -104 -103 -72 -165 30 -57 102 -72 174 -34 26 14 61 22 90 22 106 0 180
47 201 128 33 120 -74 229 -196 202z"/>
<path d="M4463 8660 c-46 -10 -80 -35 -114 -83 -18 -26 -50 -53 -83 -70 -77
-41 -104 -103 -72 -165 30 -57 102 -72 174 -34 26 14 61 22 90 22 106 0 180
47 201 128 33 120 -74 229 -196 202z"/>
<path d="M8463 8660 c-46 -10 -80 -35 -114 -83 -18 -26 -50 -53 -83 -70 -77
-41 -104 -103 -72 -165 30 -57 102 -72 174 -34 26 14 61 22 90 22 106 0 180
47 201 128 33 120 -74 229 -196 202z"/>
<path d="M9463 8660 c-46 -10 -80 -35 -114 -83 -18 -26 -50 -53 -83 -70 -77
-41 -104 -103 -72 -165 30 -57 102 -72 174 -34 26 14 61 22 90 22 106 0 180
47 201 128 33 120 -74 229 -196 202z"/>
<path d="M77 8234 c-4 -4 -7 -23 -7 -41 0 -33 -1 -34 -35 -27 l-35 6 0 -171
c0 -189 -2 -183 65 -152 115 53 140 182 53 277 -19 21 -19 21 7 38 19 13 25
24 23 44 -2 22 -9 28 -33 30 -17 2 -34 0 -38 -4z"/>
<path d="M2070 8220 c-6 -12 -9 -29 -6 -37 5 -13 0 -15 -34 -9 -79 13 -148
-19 -198 -91 -12 -17 -46 -45 -75 -61 -79 -44 -101 -90 -83 -168 15 -66 100
-110 181 -95 22 4 47 5 56 3 21 -4 31 -39 16 -50 -22 -13 -128 -134 -123 -139
3 -3 -7 -16 -21 -29 -32 -30 -29 -31 -126 72 -28 31 -28 33 -13 57 19 27 13
53 -15 68 -25 13 -57 -4 -65 -36 -5 -22 -12 -25 -48 -25 -62 -1 -119 -31 -163
-88 -21 -28 -60 -62 -86 -77 -105 -58 -118 -173 -27 -220 39 -20 69 -19 131 5
43 17 64 20 120 14 42 -4 86 -2 118 6 75 18 77 14 70 -149 -4 -79 -14 -159
-23 -191 -19 -64 -15 -120 14 -167 18 -31 114 -103 136 -103 6 0 39 -27 75
-61 65 -61 148 -123 206 -152 25 -14 35 -28 48 -74 24 -82 40 -108 79 -133 42
-25 96 -28 162 -7 27 8 79 18 116 21 37 3 84 14 105 25 43 21 127 106 137 137
3 11 34 45 68 75 34 30 93 84 132 121 39 36 103 91 141 121 115 89 154 191
118 312 -8 28 -18 69 -22 91 -4 23 -17 54 -29 69 -42 53 -20 72 40 35 51 -31
129 -27 198 10 39 21 69 30 103 30 61 0 106 19 140 59 62 74 58 163 -12 232
-74 74 -185 61 -262 -31 -25 -29 -58 -55 -82 -65 -59 -23 -106 -61 -124 -101
-9 -19 -21 -34 -25 -34 -5 0 -6 -4 -3 -10 3 -5 2 -10 -2 -10 -5 0 -16 17 -25
38 -45 96 -101 183 -155 237 -46 45 -62 77 -53 100 12 32 30 42 115 65 68 18
86 27 122 64 72 75 70 176 -5 249 -74 72 -191 58 -263 -33 -20 -25 -55 -53
-86 -67 -53 -25 -123 -92 -123 -116 0 -8 -9 -22 -20 -32 -18 -16 -27 -17 -110
-6 -56 8 -126 10 -189 6 -115 -9 -115 -9 -124 91 -5 64 -31 127 -66 158 l-21
19 20 20 c14 12 20 28 18 45 -2 22 -9 28 -35 30 -24 2 -34 -2 -43 -18z"/>
<path d="M3082 8228 c-17 -17 -15 -53 3 -68 12 -10 20 -9 40 4 38 25 28 76
-15 76 -9 0 -21 -5 -28 -12z"/>
<path d="M4081 8226 c-7 -8 -11 -25 -9 -38 2 -18 9 -23 32 -23 36 0 56 27 40
53 -14 22 -48 27 -63 8z"/>
<path d="M5081 8226 c-7 -8 -11 -25 -9 -38 2 -18 9 -23 32 -23 36 0 56 27 40
53 -14 22 -48 27 -63 8z"/>
<path d="M8081 8226 c-7 -8 -11 -25 -9 -38 2 -18 9 -23 32 -23 36 0 56 27 40
53 -14 22 -48 27 -63 8z"/>
<path d="M9081 8226 c-7 -8 -11 -25 -9 -38 2 -18 9 -23 32 -23 36 0 56 27 40
53 -14 22 -48 27 -63 8z"/>
<path d="M3963 8160 c-46 -10 -80 -35 -114 -83 -18 -26 -50 -53 -83 -70 -77
-41 -104 -103 -72 -165 30 -57 102 -72 174 -34 26 14 61 22 90 22 106 0 180
47 201 128 33 120 -74 229 -196 202z"/>
<path d="M4963 8160 c-46 -10 -80 -35 -114 -83 -18 -26 -50 -53 -83 -70 -77
-41 -104 -103 -72 -165 30 -57 102 -72 174 -34 26 14 61 22 90 22 106 0 180
47 201 128 33 120 -74 229 -196 202z"/>
<path d="M7965 8160 c-48 -11 -70 -26 -115 -80 -24 -28 -65 -62 -91 -76 -76
-38 -99 -105 -60 -170 35 -58 117 -65 186 -18 11 8 42 14 70 14 109 0 182 46
204 128 32 118 -75 230 -194 202z"/>
<path d="M8963 8160 c-46 -10 -80 -35 -114 -83 -18 -26 -50 -53 -83 -70 -77
-41 -104 -103 -72 -165 30 -57 102 -72 174 -34 26 14 61 22 90 22 106 0 180
47 201 128 33 120 -74 229 -196 202z"/>
<path d="M9963 8160 c-47 -11 -80 -35 -114 -83 -18 -26 -50 -53 -83 -70 -77
-41 -104 -103 -72 -165 30 -57 102 -72 174 -34 26 13 61 22 87 22 l45 0 0 170
c0 94 -1 170 -2 169 -2 -1 -18 -4 -35 -9z"/>
<path d="M577 7734 c-4 -4 -7 -22 -7 -40 l0 -34 -44 6 c-67 10 -109 -10 -168
-77 -28 -33 -73 -71 -99 -86 -71 -38 -96 -101 -65 -161 30 -57 102 -72 174
-34 28 14 61 22 95 22 98 1 156 34 189 109 26 57 18 116 -23 167 l-30 38 27
21 c37 29 31 69 -11 73 -17 2 -34 0 -38 -4z"/>
<path d="M3582 7728 c-16 -16 -15 -53 1 -66 17 -14 61 7 65 31 7 37 -39 62
-66 35z"/>
<path d="M4581 7726 c-7 -8 -11 -25 -9 -38 2 -18 9 -23 32 -23 36 0 56 27 40
53 -14 22 -48 27 -63 8z"/>
<path d="M5582 7728 c-17 -17 -15 -53 3 -68 12 -10 20 -9 40 4 38 25 28 76
-15 76 -9 0 -21 -5 -28 -12z"/>
<path d="M7582 7728 c-16 -16 -15 -53 1 -66 17 -14 61 7 65 31 7 37 -39 62
-66 35z"/>
<path d="M8581 7726 c-7 -8 -11 -25 -9 -38 2 -18 9 -23 32 -23 36 0 56 27 40
53 -14 22 -48 27 -63 8z"/>
<path d="M9581 7726 c-7 -8 -11 -25 -9 -38 2 -18 9 -23 32 -23 36 0 56 27 40
53 -14 22 -48 27 -63 8z"/>
<path d="M4463 7660 c-46 -10 -80 -35 -114 -83 -18 -26 -50 -53 -83 -70 -77
-41 -104 -103 -72 -165 30 -57 102 -72 174 -34 26 14 61 22 90 22 106 0 180
47 201 128 33 120 -74 229 -196 202z"/>
<path d="M5430 7648 c-25 -13 -60 -43 -79 -68 -19 -26 -56 -57 -87 -74 -76
-41 -102 -102 -70 -164 30 -57 102 -72 174 -34 26 14 61 22 90 22 105 0 178
46 203 128 30 101 -57 212 -166 212 -12 0 -41 -10 -65 -22z"/>
<path d="M7424 7651 c-26 -12 -53 -36 -73 -65 -21 -30 -49 -55 -81 -71 -26
-13 -57 -36 -69 -51 -42 -53 -18 -144 44 -170 47 -19 65 -18 119 11 31 16 63
25 94 25 106 0 180 47 201 128 28 104 -55 212 -161 212 -18 0 -52 -9 -74 -19z"/>
<path d="M8463 7660 c-46 -10 -80 -35 -114 -83 -18 -26 -50 -53 -83 -70 -77
-41 -104 -103 -72 -165 30 -57 102 -72 174 -34 26 14 61 22 90 22 106 0 180
47 201 128 33 120 -74 229 -196 202z"/>
<path d="M9463 7660 c-46 -10 -80 -35 -114 -83 -18 -26 -50 -53 -83 -70 -77
-41 -104 -103 -72 -165 30 -57 102 -72 174 -34 26 14 61 22 90 22 106 0 180
47 201 128 33 120 -74 229 -196 202z"/>
<path d="M81 7226 c-7 -8 -11 -25 -9 -38 2 -18 9 -23 32 -23 36 0 56 27 40 53
-14 22 -48 27 -63 8z"/>
<path d="M1082 7228 c-16 -16 -15 -53 1 -66 17 -14 61 7 65 31 7 37 -39 62
-66 35z"/>
<path d="M4081 7226 c-7 -8 -11 -25 -9 -38 2 -18 9 -23 32 -23 36 0 56 27 40
53 -14 22 -48 27 -63 8z"/>
<path d="M5081 7226 c-7 -8 -11 -25 -9 -38 2 -18 9 -23 32 -23 36 0 56 27 40
53 -14 22 -48 27 -63 8z"/>
<path d="M6082 7228 c-16 -16 -15 -53 1 -66 17 -14 61 7 65 31 7 37 -39 62
-66 35z"/>
<path d="M7082 7228 c-16 -16 -15 -53 1 -66 17 -14 61 7 65 31 7 37 -39 62
-66 35z"/>
<path d="M8081 7226 c-7 -8 -11 -25 -9 -38 2 -18 9 -23 32 -23 36 0 56 27 40
53 -14 22 -48 27 -63 8z"/>
<path d="M9081 7226 c-7 -8 -11 -25 -9 -38 2 -18 9 -23 32 -23 36 0 56 27 40
53 -14 22 -48 27 -63 8z"/>
<path d="M0 6999 l0 -169 28 6 c99 24 157 112 132 203 -18 67 -58 106 -127
122 l-33 7 0 -169z"/>
<path d="M963 7161 c-47 -12 -80 -37 -114 -84 -18 -26 -50 -53 -83 -70 -77
-41 -104 -103 -72 -165 30 -57 99 -71 176 -35 26 13 73 24 112 26 77 5 122 27
155 76 42 62 42 120 1 181 -43 63 -105 88 -175 71z"/>
<path d="M3963 7160 c-46 -10 -79 -34 -114 -83 -19 -26 -51 -52 -84 -70 -78
-39 -104 -100 -71 -165 30 -57 102 -72 174 -34 26 14 61 22 90 22 106 0 180
47 201 128 33 120 -74 229 -196 202z"/>
<path d="M4963 7160 c-46 -10 -80 -35 -114 -83 -18 -26 -50 -53 -83 -70 -77
-41 -104 -103 -72 -165 30 -57 102 -72 174 -34 26 14 61 22 90 22 106 0 180
47 201 128 33 120 -74 229 -196 202z"/>
<path d="M5927 7146 c-23 -12 -57 -41 -76 -66 -19 -26 -56 -57 -87 -74 -77
-41 -102 -102 -68 -167 15 -30 65 -59 102 -59 11 0 40 11 66 25 35 19 62 25
107 25 74 0 115 17 156 63 41 47 51 106 28 165 -19 46 -74 101 -105 104 -65 6
-86 3 -123 -16z"/>
<path d="M6950 7163 c-14 -3 -54 -35 -90 -72 -36 -36 -82 -75 -103 -86 -55
-28 -77 -59 -77 -112 0 -112 90 -147 215 -83 25 13 59 20 93 20 59 0 94 15
134 57 60 64 59 157 -3 228 -41 46 -95 61 -169 48z"/>
<path d="M7963 7160 c-46 -10 -80 -35 -114 -83 -18 -26 -50 -53 -83 -70 -77
-41 -104 -103 -72 -165 30 -57 102 -72 174 -34 26 14 61 22 90 22 106 0 180
47 201 128 33 120 -74 229 -196 202z"/>
<path d="M8963 7160 c-46 -10 -80 -35 -114 -83 -18 -26 -50 -53 -83 -70 -77
-41 -104 -103 -72 -165 30 -57 102 -72 174 -34 26 14 61 22 90 22 106 0 180
47 201 128 33 120 -74 229 -196 202z"/>
<path d="M9963 7160 c-47 -11 -80 -35 -114 -83 -18 -26 -50 -53 -83 -70 -77
-41 -104 -103 -72 -165 30 -57 102 -72 174 -34 26 13 61 22 87 22 l45 0 0 170
c0 94 -1 170 -2 169 -2 -1 -18 -4 -35 -9z"/>
<path d="M1580 6730 c-11 -11 -20 -28 -20 -38 0 -15 -8 -19 -45 -19 -67 0
-119 -28 -165 -89 -26 -35 -58 -63 -89 -78 -71 -37 -98 -103 -67 -164 30 -57
115 -73 179 -33 25 15 51 21 95 21 82 0 137 23 173 73 50 68 51 150 3 207
l-26 30 21 26 c26 33 26 46 3 67 -24 22 -38 21 -62 -3z"/>
<path d="M6570 6720 c-20 -22 -37 -30 -62 -30 -64 0 -105 -20 -178 -85 -40
-36 -76 -65 -81 -65 -5 0 -28 -17 -51 -37 -38 -35 -88 -124 -88 -157 0 -20
-67 -77 -135 -116 -70 -39 -116 -79 -156 -137 -16 -23 -50 -56 -74 -73 -54
-37 -75 -74 -75 -134 0 -67 41 -109 130 -136 78 -23 85 -30 99 -90 20 -91 79
-228 108 -251 7 -7 13 -16 13 -22 0 -5 23 -32 51 -58 l50 -49 -41 -39 c-26
-25 -54 -41 -77 -44 -53 -9 -122 -55 -158 -107 -17 -24 -53 -57 -79 -73 -84
-49 -113 -106 -83 -163 38 -74 101 -90 187 -50 39 18 72 26 113 26 38 0 71 7
97 20 95 49 134 174 84 271 -13 26 -13 35 -2 60 11 25 17 29 38 24 14 -4 27
-10 30 -14 3 -5 23 -14 45 -22 22 -7 45 -16 50 -20 45 -30 186 -57 303 -60 80
-1 92 -4 98 -21 3 -12 -3 -31 -19 -51 -49 -64 -55 -129 -19 -185 34 -52 114
-67 180 -33 21 11 67 22 102 26 91 8 125 21 159 60 53 61 63 153 25 227 -12
24 -14 36 -5 55 16 35 14 56 -10 81 -20 23 -19 42 4 38 6 -1 37 -8 68 -16 65
-15 107 -9 164 21 22 12 71 25 109 30 87 11 140 43 167 102 31 69 23 134 -23
196 -18 24 -18 25 3 47 31 33 22 68 -19 72 -29 3 -35 0 -45 -27 -11 -30 -11
-30 -76 -25 -117 9 -131 13 -141 40 -6 14 -10 60 -10 102 -1 98 -29 223 -70
309 -37 76 -34 91 23 110 20 7 55 24 78 39 26 16 66 29 107 35 85 12 124 32
157 78 35 52 42 100 21 156 -52 135 -208 152 -307 34 -24 -29 -59 -57 -87 -69
-57 -25 -97 -62 -123 -112 -11 -21 -26 -38 -35 -38 -8 0 -41 17 -72 38 -62 41
-91 56 -195 97 -44 18 -90 47 -131 84 -64 56 -66 61 -49 108 5 13 -31 53 -48
53 -6 0 -24 -13 -39 -30z"/>
<path d="M581 6726 c-7 -8 -11 -25 -9 -38 2 -18 9 -23 32 -23 36 0 56 27 40
53 -14 22 -48 27 -63 8z"/>
<path d="M3582 6728 c-16 -16 -15 -53 1 -66 17 -14 61 7 65 31 7 37 -39 62
-66 35z"/>
<path d="M4581 6726 c-7 -8 -11 -25 -9 -38 2 -18 9 -23 32 -23 36 0 56 27 40
53 -14 22 -48 27 -63 8z"/>
<path d="M5582 6728 c-16 -16 -15 -53 1 -66 17 -14 61 7 65 31 7 37 -39 62
-66 35z"/>
<path d="M7582 6728 c-16 -16 -15 -53 1 -66 17 -14 61 7 65 31 7 37 -39 62
-66 35z"/>
<path d="M8581 6726 c-7 -8 -11 -25 -9 -38 2 -18 9 -23 32 -23 36 0 56 27 40
53 -14 22 -48 27 -63 8z"/>
<path d="M9581 6726 c-7 -8 -11 -25 -9 -38 2 -18 9 -23 32 -23 36 0 56 27 40
53 -14 22 -48 27 -63 8z"/>
<path d="M463 6660 c-46 -10 -80 -35 -114 -83 -18 -26 -50 -53 -83 -70 -77
-41 -104 -103 -72 -165 30 -57 102 -72 174 -34 26 14 61 22 90 22 106 0 180
47 201 128 33 120 -74 229 -196 202z"/>
<path d="M3424 6651 c-25 -11 -54 -37 -73 -64 -19 -26 -54 -56 -81 -71 -67
-36 -90 -68 -90 -123 0 -36 6 -50 28 -73 44 -43 92 -48 153 -16 37 19 66 26
107 26 173 1 258 163 151 285 -48 55 -123 69 -195 36z"/>
<path d="M4463 6660 c-47 -11 -80 -35 -115 -84 -20 -28 -47 -52 -79 -67 -64
-29 -94 -75 -86 -130 12 -92 109 -124 201 -68 21 13 50 19 88 19 70 0 104 12
144 52 120 115 9 314 -153 278z"/>
<path d="M5463 6660 c-46 -10 -80 -35 -114 -83 -18 -26 -50 -53 -82 -70 -83
-43 -108 -107 -67 -174 13 -22 32 -36 60 -44 37 -11 46 -10 93 11 31 14 83 26
129 30 61 5 85 12 117 34 75 52 92 159 36 232 -45 59 -101 80 -172 64z"/>
<path d="M8463 6660 c-46 -10 -80 -35 -114 -83 -18 -26 -50 -53 -83 -70 -77
-41 -104 -103 -72 -165 30 -57 102 -72 174 -34 26 14 61 22 90 22 106 0 180
47 201 128 33 120 -74 229 -196 202z"/>
<path d="M9463 6660 c-46 -10 -80 -35 -114 -83 -18 -26 -50 -53 -83 -70 -77
-41 -104 -103 -72 -165 30 -57 102 -72 174 -34 26 14 61 22 90 22 106 0 180
47 201 128 33 120 -74 229 -196 202z"/>
<path d="M2080 6230 c-13 -13 -18 -28 -15 -43 6 -21 3 -22 -46 -18 -72 4 -119
-20 -169 -85 -26 -35 -58 -63 -89 -78 -71 -37 -98 -103 -67 -164 30 -57 102
-72 174 -34 28 14 61 22 95 22 94 1 153 33 188 102 32 62 21 134 -29 191 -14
16 -13 19 6 40 27 29 28 63 3 77 -26 13 -28 13 -51 -10z"/>
<path d="M81 6226 c-7 -8 -11 -25 -9 -38 2 -18 9 -23 32 -23 36 0 56 27 40 53
-14 22 -48 27 -63 8z"/>
<path d="M1081 6226 c-7 -8 -11 -25 -9 -38 2 -18 9 -23 32 -23 36 0 56 27 40
53 -14 22 -48 27 -63 8z"/>
<path d="M3082 6228 c-17 -17 -15 -53 3 -68 12 -10 20 -9 40 4 38 25 28 76
-15 76 -9 0 -21 -5 -28 -12z"/>
<path d="M4082 6228 c-7 -7 -12 -25 -12 -40 0 -27 -1 -27 -44 -22 -67 10 -109
-10 -169 -77 -28 -33 -72 -69 -95 -81 -82 -39 -108 -129 -54 -189 36 -40 99
-49 157 -23 28 12 66 18 127 18 96 1 123 13 166 76 40 60 24 170 -34 231 l-25
26 26 17 c38 25 28 76 -15 76 -9 0 -21 -5 -28 -12z"/>
<path d="M5082 6228 c-6 -6 -12 -23 -12 -37 0 -25 -2 -26 -59 -23 -70 4 -104
-11 -173 -75 -26 -24 -67 -52 -90 -62 -24 -11 -67 -40 -97 -65 -38 -31 -70
-48 -105 -56 -298 -66 -510 -267 -584 -555 -19 -71 -34 -104 -71 -156 -27 -36
-60 -85 -74 -110 -15 -25 -47 -59 -72 -77 -100 -71 -95 -187 10 -228 39 -14
49 -15 107 -2 71 17 115 10 198 -30 70 -35 180 -147 180 -185 0 -7 -14 -32
-32 -56 -62 -86 -46 -185 36 -222 41 -18 46 -18 97 -3 30 9 92 19 139 23 102
9 139 25 225 101 46 40 79 61 113 70 26 6 56 15 67 20 91 35 118 49 175 86
147 96 249 230 298 391 19 60 41 182 45 241 1 22 55 60 120 84 147 54 204 186
130 302 -21 32 -23 43 -14 58 17 28 13 66 -9 78 -27 14 -58 -3 -66 -36 -6 -24
-10 -25 -48 -20 -43 7 -169 -24 -181 -44 -8 -13 -59 -13 -87 1 -26 12 -107
105 -118 134 -5 13 3 45 21 90 44 107 35 192 -27 256 l-25 26 26 17 c35 23 32
70 -5 74 -14 2 -31 -3 -38 -10z"/>
<path d="M8081 6226 c-7 -8 -11 -25 -9 -38 2 -18 9 -23 32 -23 36 0 56 27 40
53 -14 22 -48 27 -63 8z"/>
<path d="M9081 6226 c-7 -8 -11 -25 -9 -38 2 -18 9 -23 32 -23 36 0 56 27 40
53 -14 22 -48 27 -63 8z"/>
<path d="M0 5999 l0 -169 28 6 c99 24 157 112 132 203 -18 67 -58 106 -127
122 l-33 7 0 -169z"/>
<path d="M963 6160 c-46 -10 -80 -35 -114 -83 -18 -26 -50 -53 -83 -70 -77
-41 -104 -103 -72 -165 30 -57 102 -72 174 -34 26 14 61 22 90 22 106 0 180
47 201 128 33 120 -74 229 -196 202z"/>
<path d="M2924 6152 c-24 -12 -54 -39 -76 -69 -24 -33 -52 -58 -83 -73 -75
-36 -104 -105 -71 -168 30 -57 102 -72 174 -34 26 14 61 22 90 22 107 0 180
47 202 130 16 58 0 110 -48 162 -32 34 -44 40 -92 44 -41 4 -65 0 -96 -14z"/>
<path d="M7965 6160 c-48 -11 -70 -26 -115 -80 -23 -28 -59 -58 -79 -66 -76
-32 -112 -98 -87 -158 31 -74 101 -94 179 -52 32 17 64 26 95 26 106 0 180 47
201 128 32 118 -75 230 -194 202z"/>
<path d="M8963 6160 c-46 -10 -80 -35 -114 -83 -18 -26 -50 -53 -83 -70 -77
-41 -104 -103 -72 -165 30 -57 102 -72 174 -34 26 14 61 22 90 22 106 0 180
47 201 128 33 120 -74 229 -196 202z"/>
<path d="M9963 6160 c-47 -11 -80 -35 -114 -83 -18 -26 -50 -53 -83 -70 -77
-41 -104 -103 -72 -165 30 -57 102 -72 174 -34 26 13 61 22 87 22 l45 0 0 170
c0 94 -1 170 -2 169 -2 -1 -18 -4 -35 -9z"/>
<path d="M581 5726 c-7 -8 -11 -25 -9 -38 2 -18 9 -23 32 -23 36 0 56 27 40
53 -14 22 -48 27 -63 8z"/>
<path d="M1581 5726 c-7 -8 -11 -25 -9 -38 2 -18 9 -23 32 -23 36 0 56 27 40
53 -14 22 -48 27 -63 8z"/>
<path d="M2581 5726 c-7 -8 -11 -25 -9 -38 2 -18 9 -23 32 -23 36 0 56 27 40
53 -14 22 -48 27 -63 8z"/>
<path d="M3582 5728 c-17 -17 -15 -53 3 -68 12 -10 20 -9 40 4 38 25 28 76
-15 76 -9 0 -21 -5 -28 -12z"/>
<path d="M8581 5726 c-7 -8 -11 -25 -9 -38 2 -18 9 -23 32 -23 36 0 56 27 40
53 -14 22 -48 27 -63 8z"/>
<path d="M9581 5726 c-7 -8 -11 -25 -9 -38 2 -18 9 -23 32 -23 36 0 56 27 40
53 -14 22 -48 27 -63 8z"/>
<path d="M463 5660 c-46 -10 -80 -35 -114 -83 -18 -26 -50 -53 -83 -70 -77
-41 -104 -103 -72 -165 30 -57 102 -72 174 -34 26 14 61 22 90 22 106 0 180
47 201 128 33 120 -74 229 -196 202z"/>
<path d="M1463 5660 c-46 -10 -80 -35 -114 -83 -18 -26 -50 -53 -83 -70 -77
-41 -104 -103 -72 -165 30 -57 102 -72 174 -34 26 14 61 22 90 22 106 0 180
47 201 128 33 120 -74 229 -196 202z"/>
<path d="M2463 5660 c-46 -10 -80 -35 -114 -83 -18 -26 -50 -53 -83 -70 -77
-41 -104 -103 -72 -165 30 -57 102 -72 174 -34 26 14 61 22 90 22 106 0 180
47 201 128 33 120 -74 229 -196 202z"/>
<path d="M3430 5648 c-25 -13 -60 -43 -79 -68 -19 -26 -56 -57 -87 -74 -120
-64 -110 -197 17 -221 26 -5 46 0 82 19 38 20 63 26 115 26 117 0 192 64 192
162 0 133 -126 215 -240 156z"/>
<path d="M8463 5660 c-46 -10 -80 -35 -114 -83 -18 -26 -50 -53 -83 -70 -77
-41 -104 -103 -72 -165 30 -57 102 -72 174 -34 26 14 61 22 90 22 106 0 180
47 201 128 33 120 -74 229 -196 202z"/>
<path d="M9463 5660 c-46 -10 -80 -35 -114 -83 -18 -26 -50 -53 -83 -70 -77
-41 -104 -103 -72 -165 30 -57 102 -72 174 -34 26 14 61 22 90 22 106 0 180
47 201 128 33 120 -74 229 -196 202z"/>
<path d="M81 5226 c-7 -8 -11 -25 -9 -38 2 -18 9 -23 32 -23 36 0 56 27 40 53
-14 22 -48 27 -63 8z"/>
<path d="M1081 5226 c-7 -8 -11 -25 -9 -38 2 -18 9 -23 32 -23 36 0 56 27 40
53 -14 22 -48 27 -63 8z"/>
<path d="M2081 5226 c-7 -8 -11 -25 -9 -38 2 -18 9 -23 32 -23 36 0 56 27 40
53 -14 22 -48 27 -63 8z"/>
<path d="M3081 5226 c-7 -8 -11 -25 -9 -38 2 -18 9 -23 32 -23 36 0 56 27 40
53 -14 22 -48 27 -63 8z"/>
<path d="M8081 5226 c-7 -8 -11 -25 -9 -38 2 -18 9 -23 32 -23 36 0 56 27 40
53 -14 22 -48 27 -63 8z"/>
<path d="M9081 5226 c-7 -8 -11 -25 -9 -38 2 -18 9 -23 32 -23 36 0 56 27 40
53 -14 22 -48 27 -63 8z"/>
<path d="M0 4999 l0 -169 28 6 c99 24 157 112 132 203 -18 67 -58 106 -127
122 l-33 7 0 -169z"/>
<path d="M963 5160 c-46 -10 -80 -35 -114 -83 -18 -26 -50 -53 -83 -70 -77
-41 -104 -103 -72 -165 30 -57 102 -72 174 -34 26 14 61 22 90 22 106 0 180
47 201 128 33 120 -74 229 -196 202z"/>
<path d="M1963 5160 c-46 -10 -80 -35 -114 -83 -18 -26 -50 -53 -83 -70 -79
-41 -104 -103 -70 -168 15 -31 66 -59 104 -59 11 0 43 11 70 25 37 19 65 25
111 25 75 0 119 20 154 69 89 129 -21 295 -172 261z"/>
<path d="M2965 5160 c-48 -11 -70 -26 -115 -80 -23 -28 -59 -58 -79 -66 -78
-32 -115 -102 -88 -166 32 -76 101 -96 180 -54 32 17 71 28 115 32 109 10 173
62 188 152 6 41 -13 101 -44 135 -35 39 -103 60 -157 47z"/>
<path d="M7963 5160 c-46 -10 -79 -34 -114 -83 -19 -26 -51 -52 -84 -70 -78
-39 -104 -100 -71 -165 30 -57 102 -72 174 -34 26 14 61 22 90 22 106 0 180
47 201 128 33 120 -74 229 -196 202z"/>
<path d="M8963 5160 c-46 -10 -80 -35 -114 -83 -18 -26 -50 -53 -83 -70 -77
-41 -104 -103 -72 -165 30 -57 102 -72 174 -34 26 14 61 22 90 22 106 0 180
47 201 128 33 120 -74 229 -196 202z"/>
<path d="M9963 5160 c-47 -11 -80 -35 -114 -83 -18 -26 -50 -53 -83 -70 -77
-41 -104 -103 -72 -165 30 -57 102 -72 174 -34 26 13 61 22 87 22 l45 0 0 170
c0 94 -1 170 -2 169 -2 -1 -18 -4 -35 -9z"/>
<path d="M2572 4725 c-15 -19 -29 -25 -59 -25 -67 0 -135 -27 -198 -78 -33
-27 -76 -57 -95 -67 -121 -61 -362 -299 -434 -430 -16 -27 -47 -71 -71 -97
-80 -89 -84 -162 -15 -261 30 -42 49 -84 66 -147 23 -88 58 -162 118 -250 17
-25 36 -54 42 -65 6 -11 17 -30 24 -42 13 -20 10 -26 -39 -78 -28 -32 -61 -75
-72 -97 -12 -24 -39 -51 -72 -72 -68 -44 -79 -57 -84 -109 -6 -58 23 -102 77
-118 37 -11 46 -10 93 11 33 15 81 25 132 29 123 10 166 42 221 167 14 32 30
62 36 65 5 3 49 -2 96 -12 48 -10 141 -19 207 -21 l120 -3 -3 -75 c-3 -65 0
-80 20 -110 42 -62 114 -78 188 -40 22 11 58 20 80 20 137 0 230 82 230 203 0
16 -9 50 -21 77 -16 37 -18 53 -10 68 17 32 13 58 -13 83 -14 13 -22 27 -20
31 8 12 62 10 87 -3 39 -22 121 -14 170 15 27 15 61 26 82 26 121 0 215 79
215 180 0 35 -23 96 -47 122 -15 17 -15 20 6 42 14 15 21 33 19 48 -2 19 -9
23 -38 23 -31 0 -36 -4 -45 -33 -7 -26 -13 -31 -29 -26 -31 10 -118 7 -165 -6
-24 -6 -46 -9 -49 -5 -3 3 -10 75 -14 159 -8 158 -11 174 -82 364 -19 50 -15
62 22 62 41 0 91 17 131 44 24 16 57 26 99 30 114 11 180 68 190 165 4 50 -12
96 -50 137 -19 21 -19 21 7 38 34 22 32 69 -3 74 -31 5 -52 -15 -52 -49 0 -28
0 -28 -49 -22 -64 7 -126 -22 -176 -83 -24 -28 -57 -54 -89 -68 -28 -13 -58
-32 -67 -42 -24 -27 -59 -92 -59 -108 0 -9 -8 -12 -25 -8 -14 2 -25 8 -25 13
0 5 -5 9 -10 9 -6 0 -23 11 -38 24 -43 39 -101 76 -183 117 -42 21 -105 60
-138 85 -57 43 -62 49 -56 76 5 21 2 35 -11 49 -23 26 -49 24 -72 -6z"/>
<path d="M581 4726 c-7 -8 -11 -25 -9 -38 2 -18 9 -23 32 -23 36 0 56 27 40
53 -14 22 -48 27 -63 8z"/>
<path d="M1582 4728 c-16 -16 -15 -53 1 -66 17 -14 61 7 65 31 7 37 -39 62
-66 35z"/>
<path d="M5571 4721 c-6 -11 -8 -27 -4 -36 5 -15 0 -17 -44 -10 -80 11 -125
-7 -180 -71 -26 -31 -64 -64 -84 -74 -20 -11 -48 -33 -63 -50 -48 -58 -28
-153 40 -185 45 -21 81 -19 139 10 35 17 67 24 108 25 64 0 99 14 139 57 63
67 62 170 -3 239 l-20 21 26 17 c19 13 25 24 23 44 -2 22 -9 28 -35 30 -23 2
-34 -2 -42 -17z"/>
<path d="M6577 4734 c-4 -4 -7 -21 -7 -38 0 -31 0 -31 -49 -28 -69 5 -132 -24
-167 -78 -17 -25 -49 -54 -81 -72 -91 -51 -121 -113 -87 -183 33 -70 103 -92
175 -54 25 13 72 26 109 29 84 8 132 32 166 81 50 73 43 169 -18 235 -19 21
-19 21 7 38 19 13 25 24 23 44 -2 22 -9 28 -33 30 -17 2 -34 0 -38 -4z"/>
<path d="M7581 4726 c-7 -8 -11 -25 -9 -38 2 -18 9 -23 32 -23 36 0 56 27 40
53 -14 22 -48 27 -63 8z"/>
<path d="M8581 4726 c-7 -8 -11 -25 -9 -38 2 -18 9 -23 32 -23 36 0 56 27 40
53 -14 22 -48 27 -63 8z"/>
<path d="M9581 4726 c-7 -8 -11 -25 -9 -38 2 -18 9 -23 32 -23 36 0 56 27 40
53 -14 22 -48 27 -63 8z"/>
<path d="M463 4660 c-46 -10 -80 -35 -114 -83 -18 -26 -50 -53 -83 -70 -77
-41 -104 -103 -72 -165 30 -57 102 -72 174 -34 26 14 61 22 90 22 106 0 180
47 201 128 33 120 -74 229 -196 202z"/>
<path d="M1430 4648 c-25 -13 -60 -43 -79 -68 -19 -26 -56 -57 -87 -74 -102
-55 -113 -166 -20 -210 45 -21 61 -20 124 9 41 19 71 25 122 25 53 0 74 5 101
23 53 35 79 82 79 140 0 129 -128 213 -240 155z"/>
<path d="M7463 4660 c-46 -10 -79 -34 -114 -83 -19 -26 -51 -52 -84 -70 -80
-40 -104 -100 -69 -168 15 -30 65 -59 102 -59 11 0 40 11 66 25 31 16 63 25
94 25 106 0 180 47 201 128 33 120 -74 229 -196 202z"/>
<path d="M8463 4660 c-46 -10 -80 -35 -114 -83 -18 -26 -50 -53 -83 -70 -77
-41 -104 -103 -72 -165 30 -57 102 -72 174 -34 26 14 61 22 90 22 106 0 180
47 201 128 33 120 -74 229 -196 202z"/>
<path d="M9463 4660 c-46 -10 -80 -35 -114 -83 -18 -26 -50 -53 -83 -70 -77
-41 -104 -103 -72 -165 30 -57 102 -72 174 -34 26 14 61 22 90 22 106 0 180
47 201 128 33 120 -74 229 -196 202z"/>
<path d="M6068 4220 c-18 -25 -29 -30 -62 -30 -56 0 -120 -34 -164 -87 -20
-25 -60 -60 -89 -79 -57 -37 -93 -92 -93 -145 0 -18 15 -59 34 -94 30 -52 36
-78 26 -105 -1 -3 -2 -8 -1 -12 0 -5 -5 -8 -13 -8 -8 0 -21 -3 -30 -6 -13 -5
-16 2 -16 35 0 35 -4 43 -26 53 -31 14 -53 3 -72 -35 -11 -23 -20 -27 -55 -27
-55 0 -112 -33 -155 -90 -19 -25 -60 -61 -91 -81 -60 -38 -81 -70 -81 -122 0
-39 21 -72 60 -92 39 -20 69 -19 128 4 40 16 66 19 153 15 155 -8 145 -2 173
-97 40 -135 40 -136 5 -202 -80 -148 -5 -274 149 -248 26 4 57 7 69 6 26 -2
146 -30 183 -43 14 -5 64 -21 113 -35 73 -23 88 -31 93 -51 11 -42 -6 -76 -61
-127 -63 -58 -82 -101 -65 -151 25 -77 109 -107 185 -66 26 15 68 25 122 29
68 6 88 12 118 36 67 50 91 144 64 249 -9 36 -8 49 5 75 9 17 20 31 24 32 4 0
18 2 32 4 14 3 42 7 63 10 21 3 60 16 86 29 26 13 73 29 104 35 75 14 121 36
154 75 54 64 67 143 38 226 -8 23 -15 63 -15 88 0 33 -6 52 -22 69 -17 18 -19
26 -10 35 9 9 23 8 59 -5 69 -25 129 -22 183 9 29 17 66 27 110 31 76 7 108
21 144 63 61 73 56 158 -12 232 -32 34 -44 40 -92 45 -70 7 -133 -21 -179 -77
-21 -26 -48 -45 -87 -59 -30 -12 -68 -28 -83 -35 -35 -19 -46 -11 -61 44 -6
25 -17 63 -24 85 -43 131 -46 116 29 214 43 56 65 106 65 145 0 40 -21 95 -47
126 l-26 31 23 24 c32 34 24 69 -18 73 -26 3 -34 -1 -41 -20 -5 -13 -6 -29 -4
-36 4 -10 -7 -11 -49 -6 -62 7 -115 -11 -191 -66 -68 -48 -101 -49 -277 -5
-45 11 -104 15 -192 14 -105 -1 -134 2 -165 17 -33 16 -38 23 -35 47 4 33 -21
67 -49 67 -10 0 -28 -13 -41 -30z"/>
<path d="M81 4226 c-7 -8 -11 -25 -9 -38 2 -18 9 -23 32 -23 36 0 56 27 40 53
-14 22 -48 27 -63 8z"/>
<path d="M1081 4226 c-7 -8 -11 -25 -9 -38 2 -18 9 -23 32 -23 36 0 56 27 40
53 -14 22 -48 27 -63 8z"/>
<path d="M4082 4228 c-17 -17 -15 -53 3 -68 12 -10 20 -9 41 4 34 23 31 70 -6
74 -14 2 -31 -3 -38 -10z"/>
<path d="M5077 4234 c-4 -4 -7 -21 -7 -38 l0 -31 -54 3 c-71 5 -122 -22 -169
-86 -23 -32 -51 -57 -82 -72 -75 -36 -104 -105 -71 -168 30 -57 115 -73 179
-33 23 14 51 21 83 21 76 0 125 18 166 61 62 65 62 148 0 223 l-23 29 26 21
c38 30 32 70 -10 74 -17 2 -34 0 -38 -4z"/>
<path d="M8081 4226 c-7 -8 -11 -25 -9 -38 2 -18 9 -23 32 -23 36 0 56 27 40
53 -14 22 -48 27 -63 8z"/>
<path d="M9081 4226 c-7 -8 -11 -25 -9 -38 2 -18 9 -23 32 -23 36 0 56 27 40
53 -14 22 -48 27 -63 8z"/>
<path d="M0 3999 l0 -169 28 6 c99 24 157 112 132 203 -18 67 -58 106 -127
122 l-33 7 0 -169z"/>
<path d="M963 4160 c-46 -10 -80 -35 -114 -83 -18 -26 -50 -53 -83 -70 -77
-41 -104 -103 -72 -165 30 -57 102 -72 174 -34 26 14 61 22 90 22 106 0 180
47 201 128 33 120 -74 229 -196 202z"/>
<path d="M3923 4146 c-31 -15 -57 -36 -66 -53 -20 -38 -55 -69 -97 -87 -52
-21 -72 -49 -78 -105 -4 -45 -2 -53 25 -80 44 -44 89 -49 159 -17 31 15 75 26
98 26 138 0 228 99 196 213 -30 108 -133 153 -237 103z"/>
<path d="M7963 4160 c-46 -10 -80 -35 -114 -83 -18 -26 -50 -53 -83 -70 -77
-41 -104 -103 -72 -165 30 -57 102 -72 174 -34 26 14 61 22 90 22 106 0 180
47 201 128 33 120 -74 229 -196 202z"/>
<path d="M8963 4160 c-46 -10 -80 -35 -114 -83 -18 -26 -50 -53 -83 -70 -77
-41 -104 -103 -72 -165 30 -57 102 -72 174 -34 26 14 61 22 90 22 106 0 180
47 201 128 33 120 -74 229 -196 202z"/>
<path d="M9963 4160 c-47 -11 -80 -35 -114 -83 -18 -26 -50 -53 -83 -70 -77
-41 -104 -103 -72 -165 30 -57 102 -72 174 -34 26 13 61 22 87 22 l45 0 0 170
c0 94 -1 170 -2 169 -2 -1 -18 -4 -35 -9z"/>
<path d="M1577 3732 c-10 -10 -17 -26 -17 -35 0 -13 -9 -17 -37 -17 -63 0
-134 -40 -176 -98 -24 -34 -53 -60 -85 -76 -99 -50 -109 -166 -18 -210 45 -21
61 -20 124 9 40 18 71 25 117 25 76 0 101 9 148 49 84 74 94 172 25 248 -16
17 -18 25 -9 41 15 28 14 48 -5 66 -21 21 -47 20 -67 -2z"/>
<path d="M581 3726 c-7 -8 -11 -25 -9 -38 2 -18 9 -23 32 -23 36 0 56 27 40
53 -14 22 -48 27 -63 8z"/>
<path d="M4581 3726 c-7 -8 -11 -25 -9 -38 2 -18 9 -23 32 -23 36 0 56 27 40
53 -14 22 -48 27 -63 8z"/>
<path d="M7582 3728 c-16 -16 -15 -53 1 -66 17 -14 61 7 65 31 7 37 -39 62
-66 35z"/>
<path d="M8581 3726 c-7 -8 -11 -25 -9 -38 2 -18 9 -23 32 -23 36 0 56 27 40
53 -14 22 -48 27 -63 8z"/>
<path d="M9581 3726 c-7 -8 -11 -25 -9 -38 2 -18 9 -23 32 -23 36 0 56 27 40
53 -14 22 -48 27 -63 8z"/>
<path d="M463 3660 c-46 -10 -80 -35 -114 -83 -18 -26 -50 -53 -83 -70 -77
-41 -104 -103 -72 -165 30 -57 102 -72 174 -34 26 14 61 22 90 22 106 0 180
47 201 128 33 120 -74 229 -196 202z"/>
<path d="M4463 3660 c-46 -10 -80 -35 -114 -83 -18 -26 -50 -53 -83 -70 -77
-41 -104 -103 -72 -165 30 -57 102 -72 174 -34 26 14 61 22 90 22 106 0 180
47 201 128 33 120 -74 229 -196 202z"/>
<path d="M8463 3660 c-46 -10 -80 -35 -114 -83 -18 -26 -50 -53 -83 -70 -77
-41 -104 -103 -72 -165 30 -57 102 -72 174 -34 26 14 61 22 90 22 106 0 180
47 201 128 33 120 -74 229 -196 202z"/>
<path d="M9463 3660 c-46 -10 -80 -35 -114 -83 -18 -26 -50 -53 -83 -70 -77
-41 -104 -103 -72 -165 30 -57 102 -72 174 -34 26 14 61 22 90 22 106 0 180
47 201 128 33 120 -74 229 -196 202z"/>
<path d="M81 3226 c-7 -8 -11 -25 -9 -38 2 -18 9 -23 32 -23 36 0 56 27 40 53
-14 22 -48 27 -63 8z"/>
<path d="M1081 3226 c-7 -8 -11 -25 -9 -38 2 -18 9 -23 32 -23 36 0 56 27 40
53 -14 22 -48 27 -63 8z"/>
<path d="M4081 3226 c-7 -8 -11 -25 -9 -38 2 -18 9 -23 32 -23 36 0 56 27 40
53 -14 22 -48 27 -63 8z"/>
<path d="M5082 3228 c-16 -16 -15 -53 1 -66 17 -14 61 7 65 31 7 37 -39 62
-66 35z"/>
<path d="M8081 3226 c-7 -8 -11 -25 -9 -38 2 -18 9 -23 32 -23 36 0 56 27 40
53 -14 22 -48 27 -63 8z"/>
<path d="M9081 3226 c-7 -8 -11 -25 -9 -38 2 -18 9 -23 32 -23 36 0 56 27 40
53 -14 22 -48 27 -63 8z"/>
<path d="M0 2999 l0 -169 28 6 c99 24 157 112 132 203 -18 67 -58 106 -127
122 l-33 7 0 -169z"/>
<path d="M963 3160 c-46 -10 -80 -35 -114 -83 -18 -26 -50 -53 -83 -70 -77
-41 -104 -103 -72 -165 30 -57 102 -72 174 -34 26 14 61 22 90 22 106 0 180
47 201 128 33 120 -74 229 -196 202z"/>
<path d="M3963 3160 c-46 -10 -80 -35 -114 -83 -18 -26 -50 -53 -83 -70 -77
-41 -104 -103 -72 -165 30 -57 102 -72 174 -34 26 14 61 22 90 22 106 0 180
47 201 128 33 120 -74 229 -196 202z"/>
<path d="M4965 3161 c-48 -12 -70 -27 -115 -81 -24 -28 -65 -62 -91 -76 -86
-43 -106 -129 -45 -190 43 -43 95 -46 164 -9 35 19 62 25 108 25 51 0 68 5
106 30 49 33 78 85 78 141 0 64 -74 159 -125 159 -13 0 -29 2 -37 4 -7 2 -26
1 -43 -3z"/>
<path d="M7963 3160 c-46 -10 -80 -35 -114 -83 -18 -26 -50 -53 -83 -70 -77
-41 -104 -103 -72 -165 30 -57 102 -72 174 -34 26 14 61 22 90 22 106 0 180
47 201 128 33 120 -74 229 -196 202z"/>
<path d="M8963 3160 c-46 -10 -80 -35 -114 -83 -18 -26 -50 -53 -83 -70 -77
-41 -104 -103 -72 -165 30 -57 102 -72 174 -34 26 14 61 22 90 22 106 0 180
47 201 128 33 120 -74 229 -196 202z"/>
<path d="M9963 3160 c-47 -11 -80 -35 -114 -83 -18 -26 -50 -53 -83 -70 -77
-41 -104 -103 -72 -165 30 -57 102 -72 174 -34 26 13 61 22 87 22 l45 0 0 170
c0 94 -1 170 -2 169 -2 -1 -18 -4 -35 -9z"/>
<path d="M581 2726 c-7 -8 -11 -25 -9 -38 2 -18 9 -23 32 -23 36 0 56 27 40
53 -14 22 -48 27 -63 8z"/>
<path d="M1582 2728 c-16 -16 -15 -53 1 -66 17 -14 61 7 65 31 7 37 -39 62
-66 35z"/>
<path d="M2577 2734 c-4 -4 -7 -21 -7 -38 l0 -31 -55 3 c-69 5 -123 -24 -171
-90 -22 -32 -48 -54 -74 -64 -60 -24 -90 -65 -90 -122 1 -102 94 -143 198 -87
33 18 62 25 100 25 91 0 159 49 183 131 15 49 -3 117 -41 157 l-27 28 29 17
c23 13 29 23 26 44 -2 23 -9 29 -33 31 -17 2 -34 0 -38 -4z"/>
<path d="M3581 2726 c-7 -8 -11 -25 -9 -38 2 -18 9 -23 32 -23 36 0 56 27 40
53 -14 22 -48 27 -63 8z"/>
<path d="M4570 2715 c-6 -14 -10 -30 -10 -33 0 -4 -24 -8 -53 -8 -67 -1 -100
-19 -162 -87 -28 -30 -69 -64 -93 -76 -51 -26 -82 -72 -82 -124 0 -48 18 -82
69 -130 23 -21 41 -44 41 -50 0 -6 -10 -26 -22 -44 -16 -23 -31 -33 -50 -33
-49 0 -58 9 -52 49 5 29 2 40 -16 56 -20 18 -24 18 -48 4 -15 -8 -28 -25 -30
-37 -3 -19 -10 -22 -46 -22 -58 0 -124 -36 -164 -90 -19 -25 -56 -58 -84 -74
-59 -34 -88 -76 -88 -128 0 -83 95 -131 184 -94 21 9 55 16 75 16 51 0 154
-28 167 -45 11 -15 39 -210 36 -255 -11 -184 9 -221 165 -296 43 -20 94 -50
113 -65 37 -30 167 -99 185 -99 6 0 21 -9 32 -20 18 -16 21 -30 20 -89 -1 -58
3 -75 23 -105 45 -64 122 -81 200 -42 14 7 57 16 97 19 41 3 88 14 111 26 69
35 92 72 137 220 9 30 26 62 38 72 66 56 176 124 251 155 90 38 136 77 162
140 20 47 17 131 -6 181 -13 29 -17 54 -13 78 7 42 -17 75 -54 75 -17 0 -23 6
-23 23 0 79 -91 322 -141 376 -41 43 -46 94 -13 118 9 6 46 21 82 32 83 25
105 40 137 96 43 72 36 154 -18 213 l-21 22 23 21 c32 30 26 73 -13 77 -35 4
-49 -9 -48 -45 1 -27 -1 -28 -48 -25 -71 5 -115 -13 -168 -70 -28 -29 -70 -60
-102 -74 -30 -14 -71 -40 -90 -59 -42 -41 -56 -43 -174 -21 -49 9 -115 16
-148 16 -33 0 -68 5 -79 11 -11 5 -39 40 -63 77 -23 37 -50 73 -60 81 -15 13
-15 15 -1 32 10 10 15 30 13 46 -2 24 -8 28 -36 31 -27 3 -34 -1 -42 -23z"/>
<path d="M7581 2726 c-7 -8 -11 -25 -9 -38 2 -18 9 -23 32 -23 36 0 56 27 40
53 -14 22 -48 27 -63 8z"/>
<path d="M8582 2728 c-16 -16 -15 -53 1 -66 17 -14 61 7 65 31 7 37 -39 62
-66 35z"/>
<path d="M9581 2726 c-7 -8 -11 -25 -9 -38 2 -18 9 -23 32 -23 36 0 56 27 40
53 -14 22 -48 27 -63 8z"/>
<path d="M463 2660 c-46 -10 -80 -35 -114 -83 -18 -26 -50 -53 -83 -70 -77
-41 -104 -103 -72 -165 30 -57 102 -72 174 -34 26 14 61 22 90 22 106 0 180
47 201 128 33 120 -74 229 -196 202z"/>
<path d="M1435 2651 c-23 -10 -60 -41 -84 -70 -25 -29 -65 -63 -92 -77 -86
-43 -106 -129 -45 -190 28 -28 41 -34 78 -34 24 0 60 9 81 20 23 13 56 20 89
20 75 0 119 15 155 52 37 38 53 76 53 123 0 93 -82 175 -175 175 -11 0 -38 -9
-60 -19z"/>
<path d="M3463 2660 c-46 -10 -80 -35 -114 -83 -18 -26 -50 -53 -83 -70 -77
-41 -104 -103 -72 -165 30 -57 102 -72 174 -34 26 14 61 22 90 22 106 0 180
47 201 128 33 120 -74 229 -196 202z"/>
<path d="M7435 2651 c-23 -10 -60 -41 -84 -70 -25 -29 -65 -63 -92 -77 -72
-36 -97 -99 -65 -162 30 -57 102 -72 174 -34 29 15 61 22 100 22 34 0 74 8 98
19 133 60 133 242 0 302 -51 23 -80 23 -131 0z"/>
<path d="M8435 2652 c-23 -11 -60 -42 -83 -70 -24 -28 -63 -60 -87 -72 -62
-30 -85 -62 -85 -119 0 -53 18 -84 60 -106 41 -21 73 -19 130 10 30 15 66 25
92 25 101 0 174 47 198 127 41 137 -99 264 -225 205z"/>
<path d="M9463 2660 c-46 -10 -80 -35 -114 -83 -18 -26 -50 -53 -83 -70 -79
-41 -104 -103 -70 -168 15 -30 65 -59 102 -59 11 0 40 11 66 25 31 16 63 25
94 25 106 0 180 47 201 128 33 120 -74 229 -196 202z"/>
<path d="M2076 2226 c-19 -19 -38 -24 -95 -28 -57 -4 -87 -13 -148 -44 -42
-22 -79 -39 -82 -40 -10 -1 -92 -24 -176 -51 -91 -28 -149 -59 -220 -117 -27
-23 -59 -48 -69 -56 -48 -38 -76 -76 -116 -157 -78 -158 -94 -221 -94 -365 -1
-98 -3 -108 -25 -132 -14 -14 -31 -26 -38 -26 -8 0 -35 -11 -62 -24 -44 -23
-69 -46 -130 -126 -12 -17 -41 -40 -62 -51 -99 -50 -106 -176 -12 -215 44 -19
69 -18 117 5 27 13 70 21 127 23 73 4 95 9 155 39 38 19 75 34 82 33 6 -1 16
-2 22 -3 21 -3 159 -133 162 -154 2 -13 -7 -37 -23 -57 -14 -19 -39 -59 -54
-88 -20 -37 -41 -60 -66 -72 -90 -46 -119 -142 -61 -200 43 -42 86 -47 160
-16 41 17 80 26 117 26 128 0 195 72 209 225 4 43 12 74 21 81 8 6 41 12 72
13 69 2 208 26 272 48 85 28 174 90 261 181 88 91 131 162 180 298 17 48 35
75 82 120 115 111 138 223 66 326 -18 26 -18 29 -2 53 15 23 15 27 0 50 -20
30 -49 32 -76 5 -25 -25 -30 -25 -84 1 -70 33 -207 186 -254 282 -17 36 -44
80 -61 100 -27 30 -30 39 -21 62 11 30 1 59 -26 69 -22 9 -22 9 -48 -18z"/>
<path d="M8080 2230 c-11 -11 -20 -27 -20 -35 0 -11 -12 -15 -49 -15 -67 0
-108 -20 -164 -79 -26 -28 -72 -67 -101 -86 -88 -58 -105 -139 -51 -230 36
-60 39 -91 11 -110 -33 -24 -45 -18 -48 22 -2 31 -8 39 -32 48 -26 9 -31 6
-57 -25 -20 -24 -39 -35 -62 -38 -61 -6 -96 -23 -132 -65 -71 -81 -79 -88
-117 -108 -114 -58 -99 -212 23 -226 29 -3 58 1 83 11 44 18 93 19 186 2 76
-13 82 -20 112 -155 18 -82 18 -89 2 -156 -21 -87 -14 -133 27 -180 33 -37 67
-51 144 -59 61 -7 101 -18 146 -42 19 -10 40 -19 47 -20 7 -1 23 -9 35 -17 12
-8 40 -20 62 -26 92 -29 123 -44 128 -62 3 -10 1 -19 -3 -21 -5 -2 -24 -27
-44 -57 -27 -40 -36 -63 -36 -95 0 -46 26 -92 62 -112 32 -18 93 -17 131 2 17
10 66 20 108 25 159 16 219 84 219 246 0 103 12 124 85 144 22 6 72 26 112 45
39 19 78 34 87 34 8 0 40 9 70 20 121 46 177 173 127 290 -8 19 -15 57 -15 85
-1 44 -4 52 -32 70 -29 19 -31 24 -31 80 0 73 -35 216 -74 301 -16 35 -32 76
-35 93 -6 28 -2 32 52 67 96 61 134 117 134 199 0 48 -18 95 -52 131 -19 21
-19 21 7 38 30 19 31 52 3 70 -25 16 -52 -4 -56 -40 -3 -28 -4 -29 -54 -25
-71 5 -115 -12 -173 -64 -54 -49 -136 -85 -201 -90 -22 -1 -74 6 -115 16 -41
10 -110 19 -154 19 -94 1 -138 15 -194 61 -40 33 -43 41 -26 81 4 10 -1 24
-14 37 -26 26 -36 26 -61 1z"/>
<path d="M81 2226 c-7 -8 -11 -25 -9 -38 2 -18 9 -23 32 -23 36 0 56 27 40 53
-14 22 -48 27 -63 8z"/>
<path d="M1082 2228 c-6 -6 -12 -24 -12 -38 0 -24 -3 -25 -44 -22 -70 6 -110
-13 -169 -79 -28 -33 -72 -69 -95 -81 -119 -57 -105 -211 19 -225 33 -4 55 0
80 13 26 14 57 18 134 19 87 0 105 3 138 23 43 28 55 47 63 102 8 53 -18 128
-58 169 l-31 32 22 23 c30 32 25 70 -9 74 -14 2 -31 -3 -38 -10z"/>
<path d="M3081 2226 c-7 -8 -11 -25 -9 -38 2 -18 9 -23 32 -23 36 0 56 27 40
53 -14 22 -48 27 -63 8z"/>
<path d="M6082 2228 c-17 -17 -15 -53 3 -68 12 -10 20 -9 40 4 38 25 28 76
-15 76 -9 0 -21 -5 -28 -12z"/>
<path d="M7081 2226 c-7 -8 -11 -25 -9 -38 2 -18 9 -23 32 -23 36 0 56 27 40
53 -14 22 -48 27 -63 8z"/>
<path d="M0 1999 l0 -169 28 6 c99 24 157 112 132 203 -18 67 -58 106 -127
122 l-33 7 0 -169z"/>
<path d="M2975 2163 c-49 -10 -79 -29 -120 -77 -25 -28 -66 -62 -92 -76 -52
-27 -93 -79 -93 -117 0 -37 27 -81 60 -98 42 -22 90 -19 144 10 33 17 63 25
99 25 95 1 165 50 187 131 30 110 -75 224 -185 202z"/>
<path d="M5925 2152 c-22 -10 -57 -40 -78 -65 -25 -30 -56 -55 -88 -68 -125
-54 -151 -177 -47 -230 52 -27 96 -24 161 11 42 22 70 30 108 30 89 0 156 48
180 129 18 59 4 107 -44 158 -38 39 -48 45 -97 49 -41 4 -65 0 -95 -14z"/>
<path d="M6928 2147 c-24 -12 -58 -42 -77 -67 -19 -26 -56 -57 -87 -74 -76
-41 -102 -102 -70 -164 30 -57 102 -72 174 -34 26 14 61 22 90 22 70 0 122 18
158 54 131 131 -23 346 -188 263z"/>
<path d="M9963 2160 c-47 -11 -80 -35 -114 -83 -18 -26 -50 -53 -83 -70 -77
-41 -104 -103 -72 -165 30 -57 102 -72 174 -34 26 13 61 22 87 22 l45 0 0 170
c0 94 -1 170 -2 169 -2 -1 -18 -4 -35 -9z"/>
<path d="M582 1728 c-17 -17 -15 -53 3 -68 12 -10 20 -9 40 4 38 25 28 76 -15
76 -9 0 -21 -5 -28 -12z"/>
<path d="M3582 1728 c-16 -16 -15 -53 1 -66 17 -14 61 7 65 31 7 37 -39 62
-66 35z"/>
<path d="M6581 1726 c-7 -8 -11 -25 -9 -38 2 -18 9 -23 32 -23 36 0 56 27 40
53 -14 22 -48 27 -63 8z"/>
<path d="M9582 1728 c-16 -16 -15 -53 1 -66 17 -14 61 7 65 31 7 37 -39 62
-66 35z"/>
<path d="M430 1648 c-25 -13 -60 -43 -79 -68 -19 -26 -56 -57 -87 -74 -76 -41
-102 -102 -70 -164 30 -57 102 -72 174 -34 28 15 60 22 96 22 94 0 163 38 192
107 47 108 -40 233 -161 233 -12 0 -41 -10 -65 -22z"/>
<path d="M3430 1648 c-25 -13 -60 -43 -79 -68 -19 -26 -56 -57 -87 -74 -76
-41 -102 -102 -70 -164 30 -57 102 -72 174 -34 28 14 61 22 95 22 94 1 153 33
188 102 33 65 22 128 -34 186 -52 54 -118 65 -187 30z"/>
<path d="M6463 1660 c-46 -10 -80 -35 -114 -83 -18 -26 -50 -53 -82 -70 -80
-41 -106 -101 -73 -165 30 -57 102 -72 174 -34 26 14 61 22 90 22 106 0 180
47 201 128 33 120 -74 229 -196 202z"/>
<path d="M9424 1651 c-23 -10 -56 -37 -74 -60 -22 -27 -58 -53 -104 -76 -110
-53 -147 -129 -91 -189 57 -62 134 -71 218 -26 42 22 70 30 107 30 64 0 109
19 143 59 39 47 53 102 38 151 -32 108 -136 157 -237 111z"/>
<path d="M4080 1230 c-11 -11 -20 -28 -20 -38 0 -16 -8 -19 -43 -18 -64 1
-117 -27 -166 -90 -26 -34 -61 -64 -90 -79 -71 -36 -98 -102 -67 -163 30 -57
102 -72 174 -34 30 16 61 22 105 22 108 1 169 43 197 137 16 52 6 104 -26 143
l-26 30 21 26 c26 33 26 46 3 67 -24 22 -38 21 -62 -3z"/>
<path d="M81 1226 c-7 -8 -11 -25 -9 -38 2 -18 9 -23 32 -23 36 0 56 27 40 53
-14 22 -48 27 -63 8z"/>
<path d="M3082 1228 c-16 -16 -15 -53 1 -66 17 -14 61 7 65 31 7 37 -39 62
-66 35z"/>
<path d="M6081 1226 c-7 -8 -11 -25 -9 -38 2 -18 9 -23 32 -23 36 0 56 27 40
53 -14 22 -48 27 -63 8z"/>
<path d="M7082 1228 c-16 -16 -15 -53 1 -66 17 -14 61 7 65 31 7 37 -39 62
-66 35z"/>
<path d="M0 999 l0 -169 28 6 c99 24 157 112 132 203 -18 67 -58 106 -127 122
l-33 7 0 -169z"/>
<path d="M2923 1151 c-25 -12 -55 -37 -73 -62 -19 -27 -53 -55 -88 -74 -95
-50 -118 -136 -53 -199 42 -40 89 -44 154 -12 38 18 70 26 108 26 170 1 254
164 148 285 -49 55 -123 69 -196 36z"/>
<path d="M5943 1159 c-20 -6 -53 -33 -89 -73 -31 -36 -67 -67 -80 -70 -13 -4
-39 -22 -59 -41 -30 -30 -35 -42 -35 -81 0 -37 6 -51 28 -74 44 -43 92 -48
153 -16 34 17 67 26 97 26 70 0 122 18 158 54 68 68 65 169 -6 237 -49 47 -98
58 -167 38z"/>
<path d="M6963 1160 c-47 -11 -80 -35 -114 -83 -18 -26 -50 -53 -83 -70 -77
-41 -104 -103 -72 -165 30 -57 102 -72 174 -34 28 14 61 22 95 22 59 1 118 19
149 47 36 31 61 100 54 148 -9 56 -64 121 -114 135 -41 11 -44 11 -89 0z"/>
<path d="M9963 1160 c-47 -11 -80 -35 -114 -83 -18 -26 -50 -53 -83 -70 -77
-41 -104 -103 -72 -165 30 -57 102 -72 174 -34 26 13 61 22 87 22 l45 0 0 170
c0 94 -1 170 -2 169 -2 -1 -18 -4 -35 -9z"/>
<path d="M7579 729 c-13 -13 -18 -27 -14 -40 6 -17 1 -19 -45 -19 -72 0 -109
-19 -164 -84 -27 -31 -70 -68 -97 -82 -71 -39 -96 -102 -65 -162 30 -57 102
-72 174 -34 29 15 61 22 100 22 122 1 202 72 202 181 0 44 -11 71 -44 108
l-21 23 23 15 c28 20 30 68 3 83 -26 13 -28 13 -52 -11z"/>
<path d="M581 726 c-7 -8 -11 -25 -9 -38 2 -18 9 -23 32 -23 36 0 56 27 40 53
-14 22 -48 27 -63 8z"/>
<path d="M2574 729 c-4 -6 -7 -24 -6 -39 1 -26 0 -26 -47 -16 -37 7 -57 6 -81
-4 -43 -18 -87 -56 -105 -90 -8 -16 -40 -43 -70 -60 -67 -38 -86 -65 -87 -119
0 -51 23 -88 67 -107 47 -19 64 -18 121 11 35 18 65 25 104 25 168 0 257 167
155 288 l-25 30 26 17 c18 12 24 23 22 43 -2 22 -9 28 -35 30 -17 2 -34 -2
-39 -9z"/>
<path d="M3581 726 c-7 -8 -11 -25 -9 -38 2 -18 9 -23 32 -23 36 0 56 27 40
53 -14 22 -48 27 -63 8z"/>
<path d="M4577 734 c-4 -4 -7 -22 -7 -40 l0 -34 -44 6 c-67 10 -109 -10 -168
-77 -28 -33 -73 -71 -99 -86 -71 -38 -96 -101 -65 -161 30 -57 99 -71 176 -35
26 13 73 24 112 26 77 5 122 27 155 76 44 66 40 148 -12 209 l-25 30 26 17
c37 24 31 69 -11 73 -17 2 -34 0 -38 -4z"/>
<path d="M5582 728 c-16 -16 -15 -53 1 -66 17 -14 61 7 65 31 7 37 -39 62 -66
35z"/>
<path d="M6581 726 c-7 -8 -11 -25 -9 -38 2 -18 9 -23 32 -23 36 0 56 27 40
53 -14 22 -48 27 -63 8z"/>
<path d="M9581 726 c-7 -8 -11 -25 -9 -38 2 -18 9 -23 32 -23 36 0 56 27 40
53 -14 22 -48 27 -63 8z"/>
<path d="M463 660 c-46 -10 -80 -35 -114 -83 -18 -26 -50 -53 -83 -70 -77 -41
-104 -103 -72 -165 30 -57 102 -72 174 -34 26 14 61 22 90 22 106 0 180 47
201 128 33 120 -74 229 -196 202z"/>
<path d="M3463 660 c-46 -10 -80 -35 -114 -83 -18 -26 -50 -53 -83 -70 -77
-41 -104 -103 -72 -165 30 -57 102 -72 174 -34 26 14 61 22 90 22 106 0 180
47 201 128 33 120 -74 229 -196 202z"/>
<path d="M5443 659 c-20 -6 -52 -32 -85 -70 -30 -35 -73 -71 -100 -85 -71 -36
-96 -100 -64 -162 30 -57 102 -72 174 -34 26 14 61 22 90 22 106 0 180 47 201
128 28 104 -58 216 -164 211 -11 0 -34 -5 -52 -10z"/>
<path d="M6463 660 c-46 -10 -80 -35 -114 -83 -18 -26 -50 -53 -83 -70 -77
-41 -104 -103 -72 -165 30 -57 102 -72 174 -34 26 14 61 22 90 22 106 0 180
47 201 128 33 120 -74 229 -196 202z"/>
<path d="M9435 651 c-23 -10 -60 -41 -83 -69 -24 -28 -63 -60 -88 -73 -78 -37
-105 -110 -64 -176 34 -56 116 -63 185 -16 11 7 42 13 70 13 73 0 125 18 161
54 83 83 57 218 -50 267 -51 23 -80 23 -131 0z"/>
<path d="M81 226 c-7 -8 -11 -25 -9 -38 2 -18 9 -23 32 -23 36 0 56 27 40 53
-14 22 -48 27 -63 8z"/>
<path d="M1081 226 c-7 -8 -11 -25 -9 -38 2 -18 9 -23 32 -23 36 0 56 27 40
53 -14 22 -48 27 -63 8z"/>
<path d="M2082 228 c-16 -16 -15 -53 1 -66 17 -14 61 7 65 31 7 37 -39 62 -66
35z"/>
<path d="M3081 226 c-7 -8 -11 -25 -9 -38 2 -18 9 -23 32 -23 36 0 56 27 40
53 -14 22 -48 27 -63 8z"/>
<path d="M4081 226 c-7 -8 -11 -25 -9 -38 2 -18 9 -23 32 -23 36 0 56 27 40
53 -14 22 -48 27 -63 8z"/>
<path d="M5081 226 c-7 -8 -11 -25 -9 -38 2 -18 9 -23 32 -23 36 0 56 27 40
53 -14 22 -48 27 -63 8z"/>
<path d="M6081 226 c-7 -8 -11 -25 -9 -38 2 -18 9 -23 32 -23 36 0 56 27 40
53 -14 22 -48 27 -63 8z"/>
<path d="M7081 226 c-7 -8 -11 -25 -9 -38 2 -18 9 -23 32 -23 36 0 56 27 40
53 -14 22 -48 27 -63 8z"/>
<path d="M8082 228 c-17 -17 -15 -53 3 -68 12 -10 20 -9 41 4 34 23 31 70 -6
74 -14 2 -31 -3 -38 -10z"/>
<path d="M9081 226 c-7 -8 -11 -25 -9 -38 2 -18 9 -23 32 -23 36 0 56 27 40
53 -14 22 -48 27 -63 8z"/>
<path d="M0 84 l0 -84 85 0 85 0 -6 28 c-16 68 -63 117 -127 132 l-37 8 0 -84z"/>
<path d="M963 160 c-46 -10 -79 -34 -114 -83 -17 -23 -45 -50 -62 -59 -31 -17
-26 -17 176 -18 l207 0 -6 28 c-24 98 -107 153 -201 132z"/>
<path d="M1933 155 c-17 -8 -51 -38 -75 -66 -23 -29 -56 -60 -73 -70 -30 -19
-29 -19 178 -19 l207 0 -6 28 c-27 112 -132 170 -231 127z"/>
<path d="M2963 160 c-46 -10 -79 -34 -114 -83 -17 -23 -45 -50 -62 -59 -31
-17 -26 -17 176 -18 l207 0 -6 28 c-24 99 -107 153 -201 132z"/>
<path d="M3963 160 c-46 -10 -79 -34 -114 -83 -17 -23 -45 -50 -62 -59 -31
-17 -26 -17 176 -18 l207 0 -6 28 c-24 99 -107 153 -201 132z"/>
<path d="M4963 160 c-46 -10 -79 -34 -114 -83 -17 -23 -45 -50 -62 -59 -31
-17 -26 -17 176 -18 l207 0 -6 28 c-24 99 -107 153 -201 132z"/>
<path d="M5963 160 c-46 -10 -79 -34 -114 -83 -17 -23 -45 -50 -62 -59 -31
-17 -26 -17 176 -18 l207 0 -6 28 c-24 99 -107 153 -201 132z"/>
<path d="M6963 160 c-46 -10 -79 -34 -114 -83 -17 -23 -45 -50 -62 -59 -31
-17 -26 -17 176 -18 l207 0 -6 28 c-24 99 -107 153 -201 132z"/>
<path d="M7930 148 c-25 -13 -60 -43 -78 -68 -19 -25 -48 -53 -66 -62 -30 -17
-25 -17 177 -18 159 0 207 3 207 13 -1 25 -38 93 -67 120 -43 40 -113 46 -173
15z"/>
<path d="M8930 148 c-25 -13 -58 -42 -75 -64 -16 -23 -46 -51 -65 -63 l-35
-21 208 0 207 0 -6 28 c-19 76 -73 128 -145 138 -34 4 -54 0 -89 -18z"/>
<path d="M9963 160 c-46 -11 -79 -35 -114 -83 -17 -23 -45 -50 -62 -59 -32
-17 -31 -17 91 -18 l122 0 0 85 c0 47 -1 85 -2 84 -2 -1 -18 -4 -35 -9z"/>
</g>
</svg>
